<svg id="Layer_1" data-name="Layer 1" xmlns="http://www.w3.org/2000/svg" version="1.1"
                viewBox="0 0 1920 1080">
                <g>
                    <path id="dot-0"
                        d="M419.5,713.68c0,21.83-17.69,39.52-39.52,39.52s-39.52-17.69-39.52-39.52,17.69-39.52,39.52-39.52,39.52,17.69,39.52,39.52"
                        vector-effect="non-scaling-stroke" fill="#0e8bcd" fill-opacity=".5" stroke-width="0" />
                    <path id="dot-1"
                        d="M443.56,336.99c0,35.11-28.46,63.58-63.57,63.59-35.11,0-63.58-28.46-63.59-63.57v-.02c0-35.11,28.46-63.58,63.57-63.59,35.11,0,63.58,28.46,63.59,63.57v.02"
                        vector-effect="non-scaling-stroke" fill="#0e8bcd" fill-opacity=".5" stroke-width="0" />
                    <path id="dot-2"
                        d="M576.83,713.68c0,20.16-16.34,36.5-36.5,36.5s-36.5-16.34-36.5-36.5,16.34-36.5,36.5-36.5,36.5,16.34,36.5,36.5"
                        vector-effect="non-scaling-stroke" fill="#003d2b" fill-opacity=".5" stroke-width="0" />
                    <path id="dot-3"
                        d="M608.11,336.99c0,37.43-30.33,67.78-67.76,67.79-37.43,0-67.78-30.33-67.79-67.76v-.02c0-37.43,30.33-67.78,67.76-67.79,37.43,0,67.78,30.33,67.79,67.76v.02"
                        vector-effect="non-scaling-stroke" fill="#003d2b" fill-opacity=".5" stroke-width="0" />
                    <path id="dot-4"
                        d="M733.81,713.68c0,18.34-14.86,33.2-33.2,33.2s-33.2-14.86-33.2-33.2h0c0-18.34,14.86-33.21,33.2-33.21,18.34,0,33.2,14.86,33.2,33.2h0"
                        vector-effect="non-scaling-stroke" fill="#e1b52f" fill-opacity=".5" stroke-width="0" />
                    <path id="dot-5"
                        d="M777.09,336.99c0,42.24-34.24,76.48-76.48,76.48s-76.48-34.24-76.48-76.48,34.24-76.48,76.48-76.48,76.48,34.24,76.48,76.48"
                        vector-effect="non-scaling-stroke" fill="#e1b52f" fill-opacity=".5" stroke-width="0" />
                    <path id="dot-6"
                        d="M877.93,713.68c0,9.42-7.64,17.06-17.06,17.06s-17.06-7.64-17.06-17.06,7.64-17.06,17.06-17.06,17.06,7.64,17.06,17.06"
                        vector-effect="non-scaling-stroke" fill="#cb026e" fill-opacity=".5" stroke-width="0" />
                    <path id="dot-7"
                        d="M941.64,336.99c0,44.6-36.15,80.77-80.75,80.77-44.6,0-80.77-36.15-80.77-80.75v-.02c0-44.6,36.15-80.77,80.75-80.77,44.6,0,80.77,36.15,80.77,80.75v.02"
                        vector-effect="non-scaling-stroke" fill="#cb026e" fill-opacity=".5" stroke-width="0" />
                    <path id="dot-8"
                        d="M1028.97,713.68c0,4.32-3.5,7.83-7.82,7.83-4.32,0-7.83-3.5-7.83-7.82h0c0-4.32,3.5-7.83,7.82-7.83,4.32,0,7.83,3.5,7.83,7.82h0"
                        vector-effect="non-scaling-stroke" fill="#919191" fill-opacity=".5" stroke-width="0" />
                    <path id="dot-9"
                        d="M1109.86,336.99c0,48.99-39.7,88.72-88.7,88.73-48.99,0-88.72-39.7-88.73-88.7v-.03c0-48.99,39.7-88.72,88.7-88.73,48.99,0,88.72,39.7,88.73,88.7v.03"
                        vector-effect="non-scaling-stroke" fill="#919191" fill-opacity=".5" stroke-width="0" />
                    <path id="dot-10"
                        d="M1189.33,713.68c0,4.32-3.5,7.83-7.82,7.83-4.32,0-7.83-3.5-7.83-7.82h0c0-4.32,3.5-7.83,7.82-7.83,4.32,0,7.83,3.5,7.83,7.82h0"
                        vector-effect="non-scaling-stroke" fill="#5b8f77" fill-opacity=".5" stroke-width="0" />
                    <path id="dot-11"
                        d="M1274.35,336.99c0,51.28-41.57,92.85-92.85,92.85s-92.85-41.57-92.85-92.85,41.57-92.85,92.85-92.85,92.85,41.57,92.85,92.85"
                        vector-effect="non-scaling-stroke" fill="#5b8f77" fill-opacity=".5" stroke-width="0" />
                    <path id="dot-12" d="M1341.77,713.68" vector-effect="non-scaling-stroke" fill="#01608a"
                        fill-opacity=".5" stroke-width="0" />
                    <path id="dot-13"
                        d="M1433.37,336.99c0,50.59-41.01,91.6-91.6,91.6s-91.6-41.01-91.6-91.6,41.01-91.6,91.6-91.6,91.6,41.01,91.6,91.6"
                        vector-effect="non-scaling-stroke" fill="#01608a" fill-opacity=".5" stroke-width="0" />
                    <path id="dot-14" d="M1502.04,713.68" vector-effect="non-scaling-stroke" fill="#d86c01"
                        fill-opacity=".5" stroke-width="0" />
                    <path id="dot-15"
                        d="M1598.69,336.99c0,53.37-43.27,96.64-96.64,96.64s-96.64-43.27-96.64-96.64,43.27-96.64,96.64-96.64,96.64,43.27,96.64,96.64"
                        vector-effect="non-scaling-stroke" fill="#d86c01" fill-opacity=".5" stroke-width="0" />
                    <path id="dot-16" d="M1662.31,713.68" vector-effect="non-scaling-stroke" fill="#8b3076"
                        fill-opacity=".5" stroke-width="0" />
                    <path id="dot-17"
                        d="M1764.5,336.99c0,56.44-45.75,102.19-102.19,102.19s-102.19-45.75-102.19-102.19,45.75-102.19,102.19-102.19,102.19,45.75,102.19,102.19"
                        vector-effect="non-scaling-stroke" fill="#8b3076" fill-opacity=".5" stroke-width="0" />
                </g>
                <line x1="378.07" y1="338.03" x2="1665.2" y2="338.03" fill="#fff" opacity=".5" stroke="#003d2b"
                    stroke-miterlimit="10" stroke-width=".5" />
                <line x1="377.1" y1="714.56" x2="1664.23" y2="714.56" fill="#fff" opacity=".5" stroke="#003d2b"
                    stroke-miterlimit="10" stroke-width=".5" />
                <g>
                    <path d="M358.4,524.55h4.95v21.73h-2.8v-19.23h-2.15v-2.49Z" fill="#0e8bcd" opacity=".5"
                        stroke-width="0" />
                    <path
                        d="M372.08,546.28h-3.12l2.1-4.22c.38-.77.75-1.56,1.12-2.37.37-.81.73-1.66,1.09-2.54-.72.58-1.47.87-2.24.87-1.29,0-2.23-.52-2.84-1.55-.61-1.04-.91-2.65-.91-4.83,0-2.63.36-4.51,1.07-5.64.71-1.14,1.9-1.7,3.56-1.7s2.88.57,3.6,1.72c.72,1.15,1.08,3.05,1.08,5.71,0,1.97-.23,3.79-.68,5.46-.22.83-.53,1.75-.93,2.76-.4,1.02-.91,2.16-1.51,3.43l-1.14,2.38-.25.54ZM373.72,531.25c0-2.86-.61-4.29-1.84-4.29s-1.83,1.41-1.83,4.24c0,1.48.14,2.56.43,3.22s.75,1,1.4,1,1.12-.33,1.41-.99c.29-.66.44-1.72.44-3.17Z"
                        fill="#0e8bcd" opacity=".5" stroke-width="0" />
                    <path
                        d="M385.98,534.49c.98.36,1.65.92,2.01,1.7.37.78.55,2.04.55,3.78,0,2.25-.38,3.91-1.13,4.97-.75,1.06-1.94,1.59-3.55,1.59s-2.81-.53-3.57-1.59c-.76-1.06-1.13-2.72-1.13-4.97,0-1.74.18-3.01.55-3.78.37-.78,1.04-1.35,2.01-1.7-.86-.38-1.47-.93-1.83-1.66-.36-.79-.53-1.85-.53-3.19,0-.93.09-1.73.26-2.41.17-.68.44-1.23.81-1.67.37-.44.83-.76,1.4-.96.57-.21,1.25-.31,2.03-.31s1.46.1,2.03.31c.56.21,1.03.53,1.39.96.37.44.64.99.81,1.67.17.68.26,1.48.26,2.41,0,1.34-.18,2.41-.53,3.19-.36.73-.97,1.29-1.83,1.66ZM385.66,540.31c0-.76-.03-1.41-.1-1.95-.07-.54-.17-.98-.32-1.32-.15-.34-.34-.59-.57-.75-.23-.16-.5-.24-.82-.24-.63,0-1.09.32-1.37.97-.29.65-.43,1.69-.43,3.14,0,2.52.6,3.78,1.81,3.78s1.8-1.21,1.8-3.64ZM385.46,529.87c0-2.04-.54-3.07-1.62-3.07s-1.6,1.01-1.6,3.04c0,2.25.54,3.38,1.62,3.38s1.6-1.12,1.6-3.35Z"
                        fill="#0e8bcd" opacity=".5" stroke-width="0" />
                    <path
                        d="M400.68,535.59c0,3.9-.38,6.72-1.13,8.44-.74,1.67-2,2.51-3.79,2.51s-3.05-.84-3.8-2.52c-.74-1.63-1.11-4.5-1.11-8.6s.37-6.96,1.11-8.6c.74-1.69,2-2.53,3.78-2.53,1.65,0,2.87.74,3.66,2.22.84,1.57,1.27,4.59,1.27,9.08ZM397.7,535.59c0-3.28-.14-5.55-.42-6.81-.28-1.25-.79-1.87-1.53-1.87s-1.26.62-1.55,1.86c-.28,1.24-.42,3.47-.42,6.68s.14,5.45.42,6.7c.29,1.24.81,1.86,1.55,1.86s1.24-.61,1.52-1.84c.29-1.17.44-3.36.44-6.57Z"
                        fill="#0e8bcd" opacity=".5" stroke-width="0" />
                </g>
                <g>
                    <path d="M522.61,524.36h4.95v21.73h-2.8v-19.23h-2.15v-2.49Z" fill="#003d2b" opacity=".5"
                        stroke-width="0" />
                    <path
                        d="M536.28,546.09h-3.12l2.1-4.22c.38-.77.75-1.56,1.12-2.37.37-.81.73-1.66,1.09-2.54-.72.58-1.47.87-2.24.87-1.29,0-2.23-.52-2.84-1.55-.61-1.04-.91-2.65-.91-4.83,0-2.63.36-4.51,1.07-5.64.71-1.14,1.9-1.7,3.56-1.7s2.88.57,3.6,1.72c.72,1.15,1.08,3.05,1.08,5.71,0,1.97-.23,3.79-.68,5.46-.22.83-.53,1.75-.93,2.76-.4,1.02-.91,2.16-1.51,3.43l-1.14,2.38-.25.54ZM537.93,531.06c0-2.86-.61-4.29-1.84-4.29s-1.83,1.41-1.83,4.24c0,1.48.14,2.56.43,3.22s.75,1,1.4,1,1.12-.33,1.41-.99c.29-.66.44-1.72.44-3.17Z"
                        fill="#003d2b" opacity=".5" stroke-width="0" />
                    <path
                        d="M550.18,534.29c.98.36,1.65.92,2.01,1.7.37.78.55,2.04.55,3.78,0,2.25-.38,3.91-1.13,4.97-.75,1.06-1.94,1.59-3.55,1.59s-2.81-.53-3.57-1.59c-.76-1.06-1.13-2.72-1.13-4.97,0-1.74.18-3.01.55-3.78.37-.78,1.04-1.35,2.01-1.7-.86-.38-1.47-.93-1.83-1.66-.36-.79-.53-1.85-.53-3.19,0-.93.09-1.73.26-2.41.17-.68.44-1.23.81-1.67.37-.44.83-.76,1.4-.96.57-.21,1.25-.31,2.03-.31s1.46.1,2.03.31c.56.21,1.03.53,1.39.96.37.44.64.99.81,1.67.17.68.26,1.48.26,2.41,0,1.34-.18,2.41-.53,3.19-.36.73-.97,1.29-1.83,1.66ZM549.86,540.12c0-.76-.03-1.41-.1-1.95-.07-.54-.17-.98-.32-1.32-.15-.34-.34-.59-.57-.75-.23-.16-.5-.24-.82-.24-.63,0-1.09.32-1.37.97-.29.65-.43,1.69-.43,3.14,0,2.52.6,3.78,1.81,3.78s1.8-1.21,1.8-3.64ZM549.66,529.68c0-2.04-.54-3.07-1.62-3.07s-1.6,1.01-1.6,3.04c0,2.25.54,3.38,1.62,3.38s1.6-1.12,1.6-3.35Z"
                        fill="#003d2b" opacity=".5" stroke-width="0" />
                    <path
                        d="M557.51,524.36h6.91v2.52h-4.69l-.7,5.46h.35c.85,0,1.61.14,2.27.41.66.27,1.22.67,1.67,1.2.45.53.79,1.17,1.03,1.94.23.77.35,1.65.35,2.63,0,2.44-.53,4.36-1.59,5.76-1.06,1.38-2.53,2.07-4.42,2.07-1.06,0-2.21-.3-3.45-.9l.73-2.59c1,.53,1.84.79,2.52.79.96,0,1.72-.43,2.28-1.29.56-.87.84-2.05.84-3.52,0-2.79-1.2-4.18-3.59-4.18-.59,0-1.19.09-1.79.27l1.27-10.55Z"
                        fill="#003d2b" opacity=".5" stroke-width="0" />
                </g>
                <g>
                    <path d="M682.66,524.28h4.95v21.73h-2.8v-19.23h-2.15v-2.49Z" fill="#e1b52f" opacity=".5"
                        stroke-width="0" />
                    <path
                        d="M696.33,546.01h-3.12l2.1-4.22c.38-.77.75-1.56,1.12-2.37.37-.81.73-1.66,1.09-2.54-.72.58-1.47.87-2.24.87-1.29,0-2.23-.52-2.84-1.55-.61-1.04-.91-2.65-.91-4.83,0-2.63.36-4.51,1.07-5.64.71-1.14,1.9-1.7,3.56-1.7s2.88.57,3.6,1.72c.72,1.15,1.08,3.05,1.08,5.71,0,1.97-.23,3.79-.68,5.46-.22.83-.53,1.75-.93,2.76-.4,1.02-.91,2.16-1.51,3.43l-1.14,2.38-.25.54ZM697.98,530.98c0-2.86-.61-4.29-1.84-4.29s-1.83,1.41-1.83,4.24c0,1.48.14,2.56.43,3.22s.75,1,1.4,1,1.12-.33,1.41-.99c.29-.66.44-1.72.44-3.17Z"
                        fill="#e1b52f" opacity=".5" stroke-width="0" />
                    <path
                        d="M708.26,546.01h-3.12l2.1-4.22c.38-.77.75-1.56,1.12-2.37.37-.81.73-1.66,1.09-2.54-.72.58-1.47.87-2.24.87-1.29,0-2.23-.52-2.84-1.55-.61-1.04-.91-2.65-.91-4.83,0-2.63.36-4.51,1.07-5.64.71-1.14,1.9-1.7,3.56-1.7s2.88.57,3.6,1.72c.72,1.15,1.08,3.05,1.08,5.71,0,1.97-.23,3.79-.68,5.46-.22.83-.53,1.75-.93,2.76-.4,1.02-.91,2.16-1.51,3.43l-1.14,2.38-.25.54ZM709.91,530.98c0-2.86-.61-4.29-1.84-4.29s-1.83,1.41-1.83,4.24c0,1.48.14,2.56.43,3.22s.75,1,1.4,1,1.12-.33,1.41-.99c.29-.66.44-1.72.44-3.17Z"
                        fill="#e1b52f" opacity=".5" stroke-width="0" />
                    <path
                        d="M724.94,535.31c0,3.9-.38,6.72-1.13,8.44-.74,1.67-2,2.51-3.79,2.51s-3.05-.84-3.8-2.52c-.74-1.63-1.11-4.5-1.11-8.6s.37-6.96,1.11-8.6c.74-1.69,2-2.53,3.78-2.53,1.65,0,2.87.74,3.66,2.22.84,1.57,1.27,4.59,1.27,9.08ZM721.96,535.31c0-3.28-.14-5.55-.42-6.81-.28-1.25-.79-1.87-1.53-1.87s-1.26.62-1.55,1.86c-.28,1.24-.42,3.47-.42,6.68s.14,5.45.42,6.7c.29,1.24.81,1.86,1.55,1.86s1.24-.61,1.52-1.84c.29-1.17.44-3.36.44-6.57Z"
                        fill="#e1b52f" opacity=".5" stroke-width="0" />
                </g>
                <g>
                    <path d="M843.4,525.1h4.95v21.73h-2.8v-19.23h-2.15v-2.49Z" fill="#cb026e" opacity=".5"
                        stroke-width="0" />
                    <path
                        d="M857.08,546.82h-3.12l2.1-4.22c.38-.77.75-1.56,1.12-2.37s.73-1.66,1.09-2.54c-.72.58-1.47.87-2.24.87-1.29,0-2.23-.52-2.84-1.55-.61-1.04-.91-2.65-.91-4.83,0-2.63.36-4.51,1.07-5.64.71-1.14,1.9-1.7,3.56-1.7s2.88.57,3.6,1.72c.72,1.15,1.08,3.05,1.08,5.71,0,1.97-.23,3.79-.68,5.46-.22.83-.53,1.75-.93,2.76-.4,1.02-.91,2.16-1.51,3.43l-1.14,2.38-.25.54ZM858.72,531.8c0-2.86-.61-4.29-1.84-4.29s-1.83,1.41-1.83,4.24c0,1.48.14,2.56.43,3.22s.75,1,1.4,1,1.12-.33,1.41-.99c.29-.66.44-1.72.44-3.17Z"
                        fill="#cb026e" opacity=".5" stroke-width="0" />
                    <path
                        d="M869.01,546.82h-3.12l2.1-4.22c.38-.77.75-1.56,1.12-2.37s.73-1.66,1.09-2.54c-.72.58-1.47.87-2.24.87-1.29,0-2.23-.52-2.84-1.55-.61-1.04-.91-2.65-.91-4.83,0-2.63.36-4.51,1.07-5.64.71-1.14,1.9-1.7,3.56-1.7s2.88.57,3.6,1.72c.72,1.15,1.08,3.05,1.08,5.71,0,1.97-.23,3.79-.68,5.46-.22.83-.53,1.75-.93,2.76-.4,1.02-.91,2.16-1.51,3.43l-1.14,2.38-.25.54ZM870.65,531.8c0-2.86-.61-4.29-1.84-4.29s-1.83,1.41-1.83,4.24c0,1.48.14,2.56.43,3.22s.75,1,1.4,1,1.12-.33,1.41-.99c.29-.66.44-1.72.44-3.17Z"
                        fill="#cb026e" opacity=".5" stroke-width="0" />
                    <path
                        d="M878.31,525.1h6.91v2.52h-4.69l-.7,5.46h.35c.85,0,1.61.14,2.27.41.66.27,1.22.67,1.67,1.2.45.53.79,1.17,1.03,1.94.23.77.35,1.65.35,2.63,0,2.44-.53,4.36-1.59,5.76-1.06,1.38-2.53,2.07-4.42,2.07-1.06,0-2.21-.3-3.45-.9l.73-2.59c1,.53,1.84.79,2.52.79.96,0,1.72-.43,2.28-1.29.56-.87.84-2.04.84-3.52,0-2.79-1.2-4.18-3.59-4.18-.59,0-1.19.09-1.79.27l1.27-10.55Z"
                        fill="#cb026e" opacity=".5" stroke-width="0" />
                </g>
                <g>
                    <path
                        d="M999.09,531.81h-2.87l-.03-.86c0-2.37.36-4.04,1.07-5.01.72-.98,1.93-1.46,3.63-1.46,3.2,0,4.8,1.77,4.8,5.32,0,2.39-1.2,5.84-3.59,10.34l-1.73,3.25s-.04.08-.08.17-.11.23-.2.41h5.38v2.5h-9.54c.16-.36.49-1.06,1-2.12.51-1.06,1.2-2.49,2.07-4.29.74-1.58,1.36-2.91,1.86-4.01s.87-2,1.13-2.7c.51-1.41.76-2.62.76-3.64,0-1.8-.62-2.7-1.87-2.7s-1.8,1.12-1.8,3.35v1.24s.03.23.03.23Z"
                        fill="#919191" opacity=".5" stroke-width="0" />
                    <path
                        d="M1017.65,535.78c0,3.9-.38,6.72-1.13,8.44-.74,1.67-2,2.51-3.79,2.51s-3.05-.84-3.8-2.52c-.74-1.63-1.11-4.5-1.11-8.6s.37-6.96,1.11-8.6c.74-1.69,2-2.53,3.79-2.53,1.65,0,2.87.74,3.66,2.22.84,1.57,1.27,4.59,1.27,9.08ZM1014.67,535.78c0-3.28-.14-5.55-.42-6.81-.28-1.25-.79-1.87-1.53-1.87s-1.26.62-1.55,1.86c-.28,1.24-.42,3.47-.42,6.68s.14,5.45.42,6.7c.29,1.24.81,1.86,1.55,1.86s1.24-.61,1.52-1.84c.29-1.17.44-3.36.44-6.57Z"
                        fill="#919191" opacity=".5" stroke-width="0" />
                    <path
                        d="M1029.58,535.78c0,3.9-.38,6.72-1.13,8.44-.74,1.67-2,2.51-3.79,2.51s-3.05-.84-3.8-2.52c-.74-1.63-1.11-4.5-1.11-8.6s.37-6.96,1.11-8.6c.74-1.69,2-2.53,3.79-2.53,1.65,0,2.87.74,3.66,2.22.84,1.57,1.27,4.59,1.27,9.08ZM1026.6,535.78c0-3.28-.14-5.55-.42-6.81-.28-1.25-.79-1.87-1.53-1.87s-1.26.62-1.55,1.86c-.28,1.24-.42,3.47-.42,6.68s.14,5.45.42,6.7c.29,1.24.81,1.86,1.55,1.86s1.24-.61,1.52-1.84c.29-1.17.44-3.36.44-6.57Z"
                        fill="#919191" opacity=".5" stroke-width="0" />
                    <path
                        d="M1041.51,535.78c0,3.9-.38,6.72-1.13,8.44-.74,1.67-2,2.51-3.79,2.51s-3.05-.84-3.8-2.52c-.74-1.63-1.11-4.5-1.11-8.6s.37-6.96,1.11-8.6c.74-1.69,2-2.53,3.79-2.53,1.65,0,2.87.74,3.66,2.22.84,1.57,1.27,4.59,1.27,9.08ZM1038.53,535.78c0-3.28-.14-5.55-.42-6.81-.28-1.25-.79-1.87-1.53-1.87s-1.26.62-1.55,1.86c-.28,1.24-.42,3.47-.42,6.68s.14,5.45.42,6.7c.29,1.24.81,1.86,1.55,1.86s1.24-.61,1.52-1.84c.29-1.17.44-3.36.44-6.57Z"
                        fill="#919191" opacity=".5" stroke-width="0" />
                </g>
                <g>
                    <path
                        d="M1161.62,532.68h-2.87l-.03-.86c0-2.37.36-4.04,1.07-5.01.72-.98,1.93-1.46,3.63-1.46,3.2,0,4.8,1.77,4.8,5.32,0,2.39-1.2,5.84-3.59,10.34l-1.73,3.25s-.04.08-.08.17-.11.23-.2.41h5.38v2.5h-9.54c.16-.36.49-1.06,1-2.12.51-1.06,1.2-2.49,2.07-4.29.74-1.58,1.36-2.91,1.86-4.01s.87-2,1.13-2.7c.51-1.41.76-2.62.76-3.64,0-1.8-.62-2.7-1.87-2.7s-1.8,1.12-1.8,3.35v1.24s.03.23.03.23Z"
                        fill="#5b8f77" opacity=".5" stroke-width="0" />
                    <path
                        d="M1180.18,536.65c0,3.9-.38,6.72-1.13,8.44-.74,1.67-2,2.5-3.79,2.5s-3.05-.84-3.8-2.52c-.74-1.63-1.11-4.5-1.11-8.6s.37-6.96,1.11-8.6c.74-1.69,2-2.53,3.79-2.53,1.65,0,2.87.74,3.66,2.22.84,1.57,1.27,4.59,1.27,9.08ZM1177.19,536.65c0-3.28-.14-5.55-.42-6.81-.28-1.25-.79-1.87-1.53-1.87s-1.26.62-1.55,1.86c-.28,1.24-.42,3.47-.42,6.68s.14,5.45.42,6.7c.29,1.24.81,1.86,1.55,1.86s1.24-.61,1.52-1.84c.29-1.17.44-3.36.44-6.57Z"
                        fill="#5b8f77" opacity=".5" stroke-width="0" />
                    <path
                        d="M1192.11,536.65c0,3.9-.38,6.72-1.13,8.44-.74,1.67-2,2.5-3.79,2.5s-3.05-.84-3.8-2.52c-.74-1.63-1.11-4.5-1.11-8.6s.37-6.96,1.11-8.6c.74-1.69,2-2.53,3.79-2.53,1.65,0,2.87.74,3.66,2.22.84,1.57,1.27,4.59,1.27,9.08ZM1189.13,536.65c0-3.28-.14-5.55-.42-6.81-.28-1.25-.79-1.87-1.53-1.87s-1.26.62-1.55,1.86c-.28,1.24-.42,3.47-.42,6.68s.14,5.45.42,6.7c.29,1.24.81,1.86,1.55,1.86s1.24-.61,1.52-1.84c.29-1.17.44-3.36.44-6.57Z"
                        fill="#5b8f77" opacity=".5" stroke-width="0" />
                    <path
                        d="M1196.67,525.61h6.91v2.52h-4.69l-.7,5.46h.35c.85,0,1.61.14,2.27.41s1.22.67,1.67,1.2c.45.53.79,1.17,1.03,1.94.23.77.35,1.65.35,2.63,0,2.44-.53,4.36-1.59,5.76-1.06,1.38-2.53,2.07-4.42,2.07-1.06,0-2.21-.3-3.45-.9l.73-2.59c1,.53,1.84.79,2.52.79.96,0,1.72-.43,2.28-1.29.56-.87.84-2.04.84-3.52,0-2.79-1.2-4.18-3.59-4.18-.59,0-1.19.09-1.79.27l1.27-10.55Z"
                        fill="#5b8f77" opacity=".5" stroke-width="0" />
                </g>
                <g>
                    <path
                        d="M1323.95,531.62h-2.87l-.03-.86c0-2.37.36-4.04,1.07-5.01.72-.98,1.93-1.46,3.63-1.46,3.2,0,4.8,1.77,4.8,5.32,0,2.39-1.2,5.84-3.59,10.34l-1.73,3.25s-.04.07-.08.17-.11.23-.2.41h5.38v2.5h-9.54c.16-.36.49-1.06,1-2.12.51-1.06,1.2-2.49,2.07-4.29.74-1.58,1.36-2.91,1.86-4.01s.87-2,1.13-2.7c.51-1.41.76-2.62.76-3.64,0-1.8-.62-2.7-1.87-2.7s-1.8,1.12-1.8,3.35v1.24s.03.23.03.23Z"
                        fill="#01608a" opacity=".5" stroke-width="0" />
                    <path
                        d="M1342.51,535.59c0,3.9-.38,6.72-1.13,8.44-.74,1.67-2,2.5-3.79,2.5s-3.05-.84-3.8-2.52c-.74-1.63-1.11-4.5-1.11-8.6s.37-6.96,1.11-8.6c.74-1.69,2-2.53,3.79-2.53,1.65,0,2.87.74,3.66,2.22.84,1.57,1.27,4.59,1.27,9.08ZM1339.53,535.59c0-3.28-.14-5.55-.42-6.81-.28-1.25-.79-1.87-1.53-1.87s-1.26.62-1.55,1.86c-.28,1.24-.42,3.47-.42,6.68s.14,5.45.42,6.7c.29,1.24.81,1.86,1.55,1.86s1.24-.61,1.52-1.84c.29-1.17.44-3.36.44-6.57Z"
                        fill="#01608a" opacity=".5" stroke-width="0" />
                    <path d="M1344.93,524.56h4.95v21.73h-2.8v-19.23h-2.15v-2.49Z" fill="#01608a" opacity=".5"
                        stroke-width="0" />
                    <path
                        d="M1363.7,535.59c0,3.9-.38,6.72-1.13,8.44-.74,1.67-2,2.5-3.79,2.5s-3.05-.84-3.8-2.52c-.74-1.63-1.11-4.5-1.11-8.6s.37-6.96,1.11-8.6c.74-1.69,2-2.53,3.79-2.53,1.65,0,2.87.74,3.66,2.22.84,1.57,1.27,4.59,1.27,9.08ZM1360.72,535.59c0-3.28-.14-5.55-.42-6.81-.28-1.25-.79-1.87-1.53-1.87s-1.26.62-1.55,1.86c-.28,1.24-.42,3.47-.42,6.68s.14,5.45.42,6.7c.29,1.24.81,1.86,1.55,1.86s1.24-.61,1.52-1.84c.29-1.17.44-3.36.44-6.57Z"
                        fill="#01608a" opacity=".5" stroke-width="0" />
                </g>
                <g>
                    <path
                        d="M1484.34,532h-2.87l-.03-.86c0-2.37.36-4.04,1.07-5.01.72-.98,1.93-1.46,3.63-1.46,3.2,0,4.8,1.77,4.8,5.32,0,2.39-1.2,5.84-3.59,10.34l-1.73,3.25s-.04.07-.08.17-.11.23-.2.41h5.38v2.5h-9.54c.16-.36.49-1.06,1-2.12.51-1.06,1.2-2.49,2.07-4.29.74-1.58,1.36-2.91,1.86-4.01s.87-2,1.13-2.7c.51-1.41.76-2.62.76-3.64,0-1.8-.62-2.7-1.87-2.7s-1.8,1.12-1.8,3.35v1.24s.03.23.03.23Z"
                        fill="#d86c01" opacity=".5" stroke-width="0" />
                    <path
                        d="M1502.9,535.96c0,3.9-.38,6.72-1.13,8.44-.74,1.67-2,2.5-3.79,2.5s-3.05-.84-3.8-2.52c-.74-1.63-1.11-4.5-1.11-8.6s.37-6.96,1.11-8.6c.74-1.69,2-2.53,3.79-2.53,1.65,0,2.87.74,3.66,2.22.84,1.57,1.27,4.59,1.27,9.08ZM1499.92,535.96c0-3.28-.14-5.55-.42-6.81-.28-1.25-.79-1.87-1.53-1.87s-1.26.62-1.55,1.86c-.28,1.24-.42,3.47-.42,6.68s.14,5.45.42,6.7c.29,1.24.81,1.86,1.55,1.86s1.24-.61,1.52-1.84c.29-1.17.44-3.36.44-6.57Z"
                        fill="#d86c01" opacity=".5" stroke-width="0" />
                    <path d="M1505.32,524.93h4.95v21.73h-2.8v-19.23h-2.15v-2.49Z" fill="#d86c01" opacity=".5"
                        stroke-width="0" />
                    <path
                        d="M1516.39,524.93h6.91v2.52h-4.69l-.7,5.46h.35c.85,0,1.61.14,2.27.41s1.22.67,1.67,1.2c.45.53.79,1.17,1.03,1.94.23.77.35,1.65.35,2.63,0,2.44-.53,4.36-1.59,5.75-1.06,1.38-2.53,2.07-4.42,2.07-1.06,0-2.21-.3-3.45-.9l.73-2.59c1,.53,1.84.79,2.52.79.96,0,1.72-.43,2.28-1.29.56-.87.84-2.04.84-3.52,0-2.79-1.2-4.18-3.59-4.18-.59,0-1.19.09-1.79.27l1.27-10.55Z"
                        fill="#d86c01" opacity=".5" stroke-width="0" />
                </g>
                <g>
                    <path
                        d="M1641.8,531.62h-2.87l-.03-.86c0-2.37.36-4.04,1.07-5.01.72-.98,1.93-1.46,3.63-1.46,3.2,0,4.8,1.77,4.8,5.32,0,2.39-1.2,5.84-3.59,10.34l-1.73,3.25s-.04.07-.08.17-.11.23-.2.41h5.38v2.5h-9.54c.16-.36.49-1.06,1-2.12.51-1.06,1.2-2.49,2.07-4.29.74-1.58,1.36-2.91,1.86-4.01s.87-2,1.13-2.7c.51-1.41.76-2.62.76-3.64,0-1.8-.62-2.7-1.87-2.7s-1.8,1.12-1.8,3.35v1.24s.03.23.03.23Z"
                        fill="#8b3076" opacity=".5" stroke-width="0" />
                    <path
                        d="M1660.36,535.59c0,3.9-.38,6.72-1.13,8.44-.74,1.67-2,2.5-3.79,2.5s-3.05-.84-3.8-2.52c-.74-1.63-1.11-4.5-1.11-8.6s.37-6.96,1.11-8.6c.74-1.69,2-2.53,3.79-2.53,1.65,0,2.87.74,3.66,2.22.84,1.57,1.27,4.59,1.27,9.08ZM1657.37,535.59c0-3.28-.14-5.55-.42-6.81-.28-1.25-.79-1.87-1.53-1.87s-1.26.62-1.55,1.86c-.28,1.24-.42,3.47-.42,6.68s.14,5.45.42,6.7c.29,1.24.81,1.86,1.55,1.86s1.24-.61,1.52-1.84c.29-1.17.44-3.36.44-6.57Z"
                        fill="#8b3076" opacity=".5" stroke-width="0" />
                    <path
                        d="M1665.66,531.62h-2.87l-.03-.86c0-2.37.36-4.04,1.07-5.01.72-.98,1.93-1.46,3.63-1.46,3.2,0,4.8,1.77,4.8,5.32,0,2.39-1.2,5.84-3.59,10.34l-1.73,3.25s-.04.07-.08.17-.11.23-.2.41h5.38v2.5h-9.54c.16-.36.49-1.06,1-2.12.51-1.06,1.2-2.49,2.07-4.29.74-1.58,1.36-2.91,1.86-4.01s.87-2,1.13-2.7c.51-1.41.76-2.62.76-3.64,0-1.8-.62-2.7-1.87-2.7s-1.8,1.12-1.8,3.35v1.24s.03.23.03.23Z"
                        fill="#8b3076" opacity=".5" stroke-width="0" />
                    <path
                        d="M1684.22,535.59c0,3.9-.38,6.72-1.13,8.44-.74,1.67-2,2.5-3.79,2.5s-3.05-.84-3.8-2.52c-.74-1.63-1.11-4.5-1.11-8.6s.37-6.96,1.11-8.6c.74-1.69,2-2.53,3.79-2.53,1.65,0,2.87.74,3.66,2.22.84,1.57,1.27,4.59,1.27,9.08ZM1681.24,535.59c0-3.28-.14-5.55-.42-6.81-.28-1.25-.79-1.87-1.53-1.87s-1.26.62-1.55,1.86c-.28,1.24-.42,3.47-.42,6.68s.14,5.45.42,6.7c.29,1.24.81,1.86,1.55,1.86s1.24-.61,1.52-1.84c.29-1.17.44-3.36.44-6.57Z"
                        fill="#8b3076" opacity=".5" stroke-width="0" />
                </g>
                <line x1="378.37" y1="347.38" x2="378.37" y2="337.77" fill="#fff" opacity=".5" stroke="#003d2b"
                    stroke-miterlimit="10" stroke-width=".5" />
                <line x1="377.09" y1="714.82" x2="377.09" y2="705.21" fill="#fff" opacity=".5" stroke="#003d2b"
                    stroke-miterlimit="10" stroke-width=".5" />
                <line x1="542.45" y1="347.32" x2="542.45" y2="337.72" fill="#fff" opacity=".5" stroke="#003d2b"
                    stroke-miterlimit="10" stroke-width=".5" />
                <line x1="541.04" y1="714.56" x2="541.04" y2="704.96" fill="#fff" opacity=".5" stroke="#003d2b"
                    stroke-miterlimit="10" stroke-width=".5" />
                <line x1="700.91" y1="347.32" x2="700.91" y2="337.72" fill="#fff" opacity=".5" stroke="#003d2b"
                    stroke-miterlimit="10" stroke-width=".5" />
                <line x1="863.02" y1="347.84" x2="863.02" y2="338.23" fill="#fff" opacity=".5" stroke="#003d2b"
                    stroke-miterlimit="10" stroke-width=".5" />
                <line x1="702.31" y1="713.86" x2="702.31" y2="704.25" fill="#fff" opacity=".5" stroke="#003d2b"
                    stroke-miterlimit="10" stroke-width=".5" />
                <line x1="861.29" y1="714.56" x2="861.29" y2="704.96" fill="#fff" opacity=".5" stroke="#003d2b"
                    stroke-miterlimit="10" stroke-width=".5" />
                <line x1="1020.45" y1="714.56" x2="1020.45" y2="704.96" fill="#fff" opacity=".5" stroke="#003d2b"
                    stroke-miterlimit="10" stroke-width=".5" />
                <line x1="1182.05" y1="715.08" x2="1182.05" y2="705.47" fill="#fff" opacity=".5" stroke="#003d2b"
                    stroke-miterlimit="10" stroke-width=".5" />
                <line x1="1340.05" y1="713.86" x2="1340.05" y2="704.25" fill="#fff" opacity=".5" stroke="#003d2b"
                    stroke-miterlimit="10" stroke-width=".5" />
                <line x1="1504.79" y1="713.86" x2="1504.79" y2="704.25" fill="#fff" opacity=".5" stroke="#003d2b"
                    stroke-miterlimit="10" stroke-width=".5" />
                <line x1="1663.95" y1="714.56" x2="1663.95" y2="704.96" fill="#fff" opacity=".5" stroke="#003d2b"
                    stroke-miterlimit="10" stroke-width=".5" />
                <line x1="1020.26" y1="347.32" x2="1020.26" y2="337.72" fill="#fff" opacity=".5" stroke="#003d2b"
                    stroke-miterlimit="10" stroke-width=".5" />
                <line x1="1182.56" y1="348.02" x2="1182.56" y2="338.42" fill="#fff" opacity=".5" stroke="#003d2b"
                    stroke-miterlimit="10" stroke-width=".5" />
                <line x1="1341.02" y1="348.02" x2="1341.02" y2="338.42" fill="#fff" opacity=".5" stroke="#003d2b"
                    stroke-miterlimit="10" stroke-width=".5" />
                <line x1="1504.54" y1="347.32" x2="1504.54" y2="337.72" fill="#fff" opacity=".5" stroke="#003d2b"
                    stroke-miterlimit="10" stroke-width=".5" />
                <line x1="1664.65" y1="348.02" x2="1664.65" y2="338.42" fill="#fff" opacity=".5" stroke="#003d2b"
                    stroke-miterlimit="10" stroke-width=".5" />
                <g>
                    <path
                        d="M166.81,298.47h5.14c2.48,0,4.28.63,5.4,1.88,1.13,1.26,1.69,3.26,1.69,6,0,3.85-1.13,6.34-3.4,7.47-1.14.51-2.78.77-4.93.77v12.85h-3.9v-28.97ZM170.71,311.24c1.61,0,2.73-.33,3.34-.98.63-.66.94-1.84.94-3.53s-.3-2.99-.9-3.79c-.6-.8-1.54-1.2-2.83-1.2h-.54v9.49Z"
                        fill="#003d2b" opacity=".5" stroke-width="0" />
                    <path
                        d="M182.04,298.47h5.14c2.13,0,3.71.51,4.75,1.52,1.31,1.31,1.97,3.32,1.97,6.02,0,2.08-.35,3.74-1.04,5-.69,1.26-1.69,2.04-2.97,2.34l5.33,14.09h-3.96l-5.31-14.18v14.18h-3.9v-28.97ZM185.94,311.3c1.51,0,2.58-.35,3.21-1.05.63-.7.94-1.88.94-3.55,0-.9-.07-1.67-.2-2.31-.13-.64-.34-1.16-.62-1.56s-.64-.69-1.09-.88-.97-.28-1.58-.28h-.66v9.62Z"
                        fill="#003d2b" opacity=".5" stroke-width="0" />
                    <path d="M198.23,298.47h3.9v28.97h-3.9v-28.97Z" fill="#003d2b" opacity=".5" stroke-width="0" />
                    <path
                        d="M204.29,298.47h3.85l1.74,10.69.3,1.93.62,4.2c.1.71.19,1.36.27,1.95.08.59.15,1.12.22,1.59l.19,1.43c.04-.29.07-.54.09-.77.02-.23.05-.41.08-.56l.51-3.36.66-4.41c.06-.4.12-.77.18-1.11.06-.34.11-.64.16-.9l1.88-10.69h3.64l-5.68,28.97h-3.1l-5.59-28.97Z"
                        fill="#003d2b" opacity=".5" stroke-width="0" />
                    <path
                        d="M224.23,298.47h3.04l6.21,28.97h-3.86l-1.09-5.65h-5.74l-1.11,5.65h-3.75l6.3-28.97ZM227.97,318.77l-.86-4.62c-.58-3.14-1.04-6.49-1.41-10.06-.18,1.74-.4,3.5-.68,5.28-.28,1.78-.6,3.67-.98,5.68l-.71,3.71h4.63Z"
                        fill="#003d2b" opacity=".5" stroke-width="0" />
                    <path d="M232.85,298.47h12.7v3.41h-4.37v25.55h-3.83v-25.55h-4.5v-3.41Z" fill="#003d2b" opacity=".5"
                        stroke-width="0" />
                    <path d="M247.7,298.47h10.38v3.3h-6.47v9.17h5.74v3.3h-5.74v9.89h6.47v3.3h-10.38v-28.97Z"
                        fill="#003d2b" opacity=".5" stroke-width="0" />
                    <path
                        d="M164.56,344.57h3.77l1.97,13.45.32,1.99c.15,1.08.26,2.06.34,2.95l.21,2.46c.01.06.02.18.04.34.01.16.03.37.06.62l.09-.94c.15-1.64.31-3.15.48-4.52.17-1.38.35-2.65.55-3.81l2.08-12.53h3l1.95,12.18c.29,1.8.53,3.47.72,5.01.19,1.54.35,3.01.48,4.41.12-1.48.27-2.9.42-4.28.16-1.38.32-2.73.5-4.05l.28-1.93,1.67-11.33h3.73l-5.12,28.97h-3.04l-2.04-12.51c-.01-.05-.04-.26-.09-.62s-.12-.88-.23-1.56l-.39-2.89c-.02-.23-.07-.56-.12-1.01-.06-.45-.12-1.02-.18-1.71l-.09-1.2c-.03.29-.05.54-.08.75-.03.21-.04.39-.06.53-.06.83-.12,1.47-.16,1.92-.04.46-.07.73-.08.83l-.39,2.78c-.09.64-.16,1.14-.21,1.5-.05.36-.09.59-.11.68l-2.12,12.51h-3.13l-5.01-28.97Z"
                        fill="#003d2b" opacity=".5" stroke-width="0" />
                    <path d="M189.51,344.57h10.38v3.3h-6.47v9.17h5.74v3.3h-5.74v9.89h6.47v3.3h-10.38v-28.97Z"
                        fill="#003d2b" opacity=".5" stroke-width="0" />
                    <path
                        d="M207.59,344.57h3.04l6.21,28.97h-3.86l-1.09-5.65h-5.74l-1.11,5.65h-3.75l6.3-28.97ZM211.33,364.87l-.86-4.62c-.58-3.14-1.04-6.49-1.41-10.06-.18,1.74-.4,3.5-.68,5.28-.28,1.78-.6,3.67-.98,5.68l-.71,3.71h4.63Z"
                        fill="#003d2b" opacity=".5" stroke-width="0" />
                    <path d="M219.13,344.57h3.9v25.67h6.38v3.3h-10.28v-28.97Z" fill="#003d2b" opacity=".5"
                        stroke-width="0" />
                    <path d="M228.89,344.57h12.7v3.41h-4.37v25.55h-3.83v-25.55h-4.5v-3.41Z" fill="#003d2b" opacity=".5"
                        stroke-width="0" />
                    <path d="M243.75,344.57h3.9v11.33h5.72v-11.33h3.9v28.97h-3.9v-14.33h-5.72v14.33h-3.9v-28.97Z"
                        fill="#003d2b" opacity=".5" stroke-width="0" />
                </g>
                <g>
                    <path
                        d="M175.57,663.03h5.14c2.48,0,4.28.63,5.4,1.88,1.13,1.26,1.69,3.26,1.69,6,0,3.85-1.13,6.34-3.4,7.47-1.14.51-2.78.77-4.93.77v12.85h-3.9v-28.97ZM179.47,675.8c1.61,0,2.73-.33,3.34-.98.63-.66.94-1.84.94-3.53s-.3-2.99-.9-3.79c-.6-.8-1.54-1.2-2.83-1.2h-.54v9.49Z"
                        fill="#003d2b" opacity=".5" stroke-width="0" />
                    <path
                        d="M190.8,663.03h3.83v20.47c0,2.09.19,3.48.56,4.17.39.69,1.15,1.03,2.29,1.03s1.89-.3,2.25-.9c.38-.61.56-1.86.56-3.73v-21.03h3.83v21.03c0,3.15-.48,5.28-1.44,6.4-1.15,1.26-2.91,1.89-5.27,1.89-2.6,0-4.43-.81-5.5-2.44-.74-1.11-1.11-3.25-1.11-6.42v-20.47Z"
                        fill="#003d2b" opacity=".5" stroke-width="0" />
                    <path
                        d="M208.59,663.03h5.29c4.14,0,6.21,2.57,6.21,7.71,0,1.96-.27,3.42-.81,4.37-.54.95-1.49,1.67-2.85,2.16,1.56.63,2.63,1.43,3.21,2.4.59.96.88,2.41.88,4.35,0,5.32-2.28,7.97-6.83,7.97h-5.1v-28.97ZM212.26,675.79c1.51,0,2.56-.35,3.15-1.05.59-.74.88-2.03.88-3.88,0-3.13-1.13-4.69-3.38-4.69h-.47c-.1,0-.16,0-.19.02v9.61ZM212.26,688.65c1.6,0,2.71-.34,3.32-1.03.61-.69.92-1.93.92-3.73s-.32-3.15-.96-3.88c-.63-.75-1.72-1.12-3.28-1.12v9.77Z"
                        fill="#003d2b" opacity=".5" stroke-width="0" />
                    <path d="M224.4,663.03h3.9v25.67h6.38v3.3h-10.28v-28.97Z" fill="#003d2b" opacity=".5"
                        stroke-width="0" />
                    <path d="M237.12,663.03h3.9v28.97h-3.9v-28.97Z" fill="#003d2b" opacity=".5" stroke-width="0" />
                    <path
                        d="M256.86,663.5v3.51c-1-.49-1.84-.73-2.51-.73-.93,0-1.72.23-2.38.68-.66.46-1.21,1.16-1.64,2.11-.43.95-.75,2.15-.96,3.61-.21,1.46-.31,3.18-.31,5.17,0,7.15,1.83,10.73,5.5,10.73.64,0,1.41-.2,2.31-.6v3.58c-.94.53-1.99.79-3.15.79-5.87,0-8.8-4.79-8.8-14.37,0-5.18.72-9.03,2.15-11.56,1.43-2.53,3.62-3.79,6.58-3.79,1.09,0,2.16.29,3.23.86Z"
                        fill="#003d2b" opacity=".5" stroke-width="0" />
                    <path
                        d="M168.18,709.13h3.77l1.97,13.45.32,1.99c.15,1.08.26,2.06.34,2.95l.21,2.46c.01.06.02.17.04.34.01.16.03.37.06.62l.09-.94c.15-1.64.31-3.15.48-4.52s.35-2.65.55-3.81l2.08-12.53h3l1.95,12.18c.29,1.8.53,3.47.72,5.01.19,1.54.35,3.01.48,4.41.12-1.48.27-2.9.42-4.28.16-1.38.32-2.73.5-4.05l.28-1.93,1.67-11.33h3.73l-5.12,28.97h-3.04l-2.04-12.51s-.04-.26-.09-.62c-.05-.36-.12-.88-.23-1.56l-.39-2.89c-.02-.22-.07-.56-.12-1.01-.06-.45-.12-1.02-.18-1.71l-.09-1.2c-.03.29-.05.54-.08.75-.03.21-.04.39-.06.53-.06.83-.12,1.47-.16,1.92-.04.46-.07.73-.08.83l-.39,2.78c-.09.64-.16,1.14-.21,1.5-.05.36-.09.59-.11.67l-2.12,12.51h-3.13l-5.01-28.97Z"
                        fill="#003d2b" opacity=".5" stroke-width="0" />
                    <path d="M193.13,709.13h10.38v3.3h-6.47v9.17h5.74v3.3h-5.74v9.89h6.47v3.3h-10.38v-28.97Z"
                        fill="#003d2b" opacity=".5" stroke-width="0" />
                    <path
                        d="M211.21,709.13h3.04l6.21,28.97h-3.86l-1.09-5.65h-5.74l-1.11,5.65h-3.75l6.3-28.97ZM214.95,729.43l-.86-4.62c-.58-3.14-1.04-6.49-1.41-10.06-.18,1.74-.4,3.5-.68,5.28-.28,1.78-.6,3.67-.98,5.68l-.71,3.71h4.63Z"
                        fill="#003d2b" opacity=".5" stroke-width="0" />
                    <path d="M222.75,709.13h3.9v25.67h6.38v3.3h-10.28v-28.97Z" fill="#003d2b" opacity=".5"
                        stroke-width="0" />
                    <path d="M232.51,709.13h12.7v3.42h-4.37v25.55h-3.83v-25.55h-4.5v-3.42Z" fill="#003d2b" opacity=".5"
                        stroke-width="0" />
                    <path d="M247.37,709.13h3.9v11.33h5.72v-11.33h3.9v28.97h-3.9v-14.33h-5.72v14.33h-3.9v-28.97Z"
                        fill="#003d2b" opacity=".5" stroke-width="0" />
                </g>
            </svg>