<?xml version="1.0" encoding="UTF-8"?>
<svg id="Layer_1" data-name="Layer 1" xmlns="http://www.w3.org/2000/svg" viewBox="0 0 545.42 692.94">
  <g>
    <rect x="2.42" y="1.54" width="216.39" height="313.78" fill="none" stroke-width="0"/>
    <rect x="2.42" y="1.54" width="216.39" height="313.78" fill="rgba(0, 0, 0, 0)" stroke-width="0"/>
  </g>
  <path id="dot-0" d="M318.91,143.25c-10.08,0-18.25-8.17-18.25-18.25,0-10.08,8.17-18.25,18.25-18.25h0c10.08,0,18.25,8.17,18.25,18.25,0,10.08-8.17,18.25-18.25,18.25h0" vector-effect="non-scaling-stroke" fill="rgba(14, 139, 205, .5)" stroke-width="0"/>
  <path id="dot-1" d="M318.91,181.92c-11.24,0-20.35-9.11-20.35-20.35s9.11-20.35,20.35-20.35,20.35,9.11,20.35,20.35-9.11,20.35-20.35,20.35" vector-effect="non-scaling-stroke" fill="rgba(0, 61, 43, .5)" stroke-width="0"/>
  <path id="dot-2" d="M318.91,217.58c-10.74,0-19.44-8.7-19.44-19.44,0-10.74,8.7-19.44,19.44-19.44h0c10.74,0,19.44,8.7,19.44,19.44,0,10.74-8.7,19.44-19.44,19.44h0" vector-effect="non-scaling-stroke" fill="rgba(225, 181, 47, .5)" stroke-width="0"/>
  <path id="dot-3" d="M318.91,253.92c-10.61,0-19.21-8.6-19.21-19.21,0-10.61,8.6-19.21,19.21-19.21h0c10.61,0,19.21,8.6,19.21,19.21,0,10.61-8.6,19.21-19.21,19.21h0" vector-effect="non-scaling-stroke" fill="rgba(203, 2, 110, .5)" stroke-width="0"/>
  <path id="dot-4" d="M318.91,290.26c-10.48,0-18.97-8.49-18.97-18.97s8.49-18.97,18.97-18.97h0c10.48,0,18.97,8.49,18.97,18.97s-8.49,18.97-18.97,18.97h0" vector-effect="non-scaling-stroke" fill="rgba(145, 145, 145, .5)" stroke-width="0"/>
  <path id="dot-5" d="M318.91,326.83c-10.48,0-18.97-8.49-18.97-18.97,0-10.48,8.49-18.97,18.97-18.97h0c10.48,0,18.97,8.49,18.97,18.97,0,10.48-8.49,18.97-18.97,18.97h0" vector-effect="non-scaling-stroke" fill="rgba(91, 143, 119, .5)" stroke-width="0"/>
  <path id="dot-6" d="M318.91,363.4c-10.48,0-18.97-8.49-18.97-18.97,0-10.48,8.49-18.97,18.97-18.97h0c10.48,0,18.97,8.49,18.97,18.97s-8.49,18.97-18.97,18.97h0" vector-effect="non-scaling-stroke" fill="rgba(1, 96, 138, .5)" stroke-width="0"/>
  <path id="dot-7" d="M318.91,399.74c-10.35,0-18.74-8.39-18.74-18.74,0-10.35,8.39-18.74,18.74-18.74s18.74,8.39,18.74,18.74c0,10.35-8.39,18.74-18.74,18.74" vector-effect="non-scaling-stroke" fill="rgba(216, 108, 1, .5)" stroke-width="0"/>
  <path id="dot-8" d="M318.91,431.32c-7.59,0-13.75-6.15-13.75-13.75,0-7.59,6.15-13.75,13.75-13.75h0c7.59,0,13.75,6.15,13.75,13.75,0,7.59-6.15,13.75-13.75,13.75h0" vector-effect="non-scaling-stroke" fill="rgba(139, 48, 118, .5)" stroke-width="0"/>
  <g>
    <path d="M331.09,461.5h4.96v1.33h-1.71v9.98h-1.49v-9.98h-1.76v-1.33Z" fill="#8b3076" opacity=".5" stroke-width="0"/>
    <path d="M342.65,467.43c0,2-.22,3.42-.67,4.26s-1.19,1.26-2.23,1.26c-1.1,0-1.87-.45-2.32-1.36-.44-.88-.67-2.45-.67-4.71,0-2.01.22-3.44.66-4.27.44-.84,1.2-1.26,2.26-1.26.95,0,1.65.33,2.11.97.3.43.52,1.05.66,1.85.14.74.21,1.83.21,3.25ZM341.05,467.59c0-1.96-.09-3.26-.26-3.9-.18-.64-.54-.97-1.08-.97s-.9.3-1.08.89c-.18.6-.26,1.79-.26,3.59,0,1.66.09,2.8.28,3.44.19.61.55.91,1.07.91s.86-.28,1.05-.85c.19-.56.29-1.6.29-3.11Z" fill="#8b3076" opacity=".5" stroke-width="0"/>
    <path d="M344.16,461.5h2.01c.97,0,1.67.24,2.11.73.44.49.66,1.27.66,2.34,0,1.5-.44,2.48-1.33,2.92-.44.2-1.09.3-1.93.3v5.02h-1.52v-11.31ZM345.68,466.48c.63,0,1.06-.13,1.3-.38.24-.26.37-.72.37-1.38s-.12-1.17-.35-1.48-.6-.47-1.11-.47h-.21v3.71Z" fill="#8b3076" opacity=".5" stroke-width="0"/>
    <path d="M358,467.24c0,2.03-.2,3.5-.59,4.39-.39.87-1.04,1.3-1.97,1.3s-1.59-.44-1.98-1.31c-.39-.85-.58-2.34-.58-4.48s.19-3.62.58-4.47c.39-.88,1.04-1.32,1.97-1.32.86,0,1.49.39,1.9,1.16.44.82.66,2.39.66,4.72ZM356.45,467.24c0-1.71-.07-2.89-.22-3.54-.15-.65-.41-.97-.8-.97s-.65.32-.81.97c-.15.64-.22,1.8-.22,3.48s.07,2.84.22,3.49c.15.64.42.97.81.97s.64-.32.79-.96c.15-.61.23-1.75.23-3.42Z" fill="#8b3076" opacity=".5" stroke-width="0"/>
    <path d="M360.13,471.11c.24,0,.45.09.62.27.18.18.26.39.26.64s-.09.46-.26.64c-.19.17-.4.26-.64.26-.13,0-.25-.02-.36-.07-.11-.05-.21-.11-.29-.19-.08-.08-.15-.18-.19-.29-.05-.11-.07-.23-.07-.35,0-.25.09-.46.26-.64.18-.18.4-.26.66-.26Z" fill="#8b3076" opacity=".5" stroke-width="0"/>
    <path d="M367.32,467.24c0,2.03-.2,3.5-.59,4.39-.39.87-1.04,1.3-1.97,1.3s-1.59-.44-1.98-1.31c-.39-.85-.58-2.34-.58-4.48s.19-3.62.58-4.47c.39-.88,1.04-1.32,1.97-1.32.86,0,1.49.39,1.9,1.16.44.82.66,2.39.66,4.72ZM365.77,467.24c0-1.71-.07-2.89-.22-3.54-.15-.65-.41-.97-.8-.97s-.65.32-.81.97c-.15.64-.22,1.8-.22,3.48s.07,2.84.22,3.49c.15.64.42.97.81.97s.64-.32.79-.96c.15-.61.23-1.75.23-3.42Z" fill="#8b3076" opacity=".5" stroke-width="0"/>
    <path d="M373.53,467.24c0,2.03-.2,3.5-.59,4.39-.39.87-1.04,1.3-1.97,1.3s-1.59-.44-1.98-1.31c-.39-.85-.58-2.34-.58-4.48s.19-3.62.58-4.47c.39-.88,1.04-1.32,1.97-1.32.86,0,1.49.39,1.9,1.16.44.82.66,2.39.66,4.72ZM371.98,467.24c0-1.71-.07-2.89-.22-3.54-.15-.65-.41-.97-.8-.97s-.65.32-.81.97c-.15.64-.22,1.8-.22,3.48s.07,2.84.22,3.49c.15.64.42.97.81.97s.64-.32.79-.96c.15-.61.23-1.75.23-3.42Z" fill="#8b3076" opacity=".5" stroke-width="0"/>
    <path d="M374.79,461.5h2.58v11.31h-1.46v-10.01h-1.12v-1.3Z" fill="#8b3076" opacity=".5" stroke-width="0"/>
    <path d="M383.44,464.16c0,1.77-.55,2.65-1.64,2.65-.55,0-.96-.22-1.21-.65-.26-.43-.38-1.11-.38-2.03s.13-1.6.38-2.03.66-.64,1.22-.64.98.22,1.24.66c.27.44.4,1.12.4,2.05ZM386.35,461.5h.93l-5.61,11.31h-.93l5.61-11.31ZM382.44,464.16c0-.64-.05-1.1-.15-1.38s-.26-.42-.48-.42-.38.13-.47.4c-.09.26-.13.72-.13,1.38s.04,1.12.13,1.38c.09.26.25.4.47.4s.38-.14.48-.41c.1-.28.15-.73.15-1.35ZM387.81,470.35c0,1.74-.54,2.61-1.6,2.61-.55,0-.95-.21-1.21-.64-.26-.43-.39-1.1-.39-2.01,0-1.78.53-2.67,1.59-2.67s1.61.9,1.61,2.7ZM386.83,470.34c0-.63-.05-1.09-.14-1.37-.09-.28-.25-.42-.47-.42s-.37.13-.46.4c-.08.29-.12.75-.12,1.38s.04,1.12.13,1.38c.09.26.24.39.45.39.41,0,.62-.58.62-1.75Z" fill="#8b3076" opacity=".5" stroke-width="0"/>
    <path d="M397.99,467.43c0,2-.22,3.42-.67,4.26s-1.19,1.26-2.23,1.26c-1.1,0-1.87-.45-2.32-1.36-.44-.88-.67-2.45-.67-4.71,0-2.01.22-3.44.66-4.27.44-.84,1.2-1.26,2.26-1.26.95,0,1.65.33,2.11.97.3.43.52,1.05.66,1.85.14.74.21,1.83.21,3.25ZM396.4,467.59c0-1.96-.09-3.26-.26-3.9-.18-.64-.54-.97-1.08-.97s-.9.3-1.08.89c-.18.6-.26,1.79-.26,3.59,0,1.66.09,2.8.28,3.44.19.61.55.91,1.07.91s.86-.28,1.05-.85c.19-.56.29-1.6.29-3.11Z" fill="#8b3076" opacity=".5" stroke-width="0"/>
    <path d="M399.5,461.5h4.07v1.29h-2.55v3.57h2.3v1.29h-2.3v5.16h-1.52v-11.31Z" fill="#8b3076" opacity=".5" stroke-width="0"/>
    <path d="M407.85,461.5h4.05v1.29h-2.53v3.58h2.24v1.29h-2.24v3.86h2.53v1.29h-4.05v-11.31Z" fill="#8b3076" opacity=".5" stroke-width="0"/>
    <path d="M414.91,461.5h1.19l2.42,11.31h-1.51l-.42-2.2h-2.24l-.43,2.2h-1.46l2.46-11.31ZM416.37,469.42l-.34-1.8c-.22-1.23-.41-2.53-.55-3.93-.07.68-.16,1.37-.26,2.06-.11.7-.23,1.43-.38,2.22l-.28,1.45h1.81Z" fill="#8b3076" opacity=".5" stroke-width="0"/>
    <path d="M419.42,461.5h2.01c.83,0,1.45.2,1.85.59.51.51.77,1.3.77,2.35,0,.81-.13,1.46-.41,1.95-.27.49-.66.79-1.16.91l2.08,5.5h-1.54l-2.07-5.54v5.54h-1.52v-11.31ZM420.94,466.51c.59,0,1.01-.14,1.25-.41s.37-.73.37-1.38c0-.35-.03-.65-.08-.9-.05-.25-.13-.45-.24-.61-.11-.16-.25-.27-.42-.34-.17-.07-.38-.11-.62-.11h-.26v3.76Z" fill="#8b3076" opacity=".5" stroke-width="0"/>
    <path d="M425.74,461.5h1.42l1.52,4.51c.44,1.27.83,2.63,1.17,4.08-.12-.87-.21-1.67-.27-2.37s-.09-1.38-.09-2v-4.22h1.53v11.31h-1.43l-1.71-5.09c-.16-.47-.3-.96-.44-1.46-.14-.5-.27-1.02-.38-1.57,0-.07-.03-.15-.05-.25-.02-.1-.05-.21-.08-.34.01.13.03.24.04.33,0,.09.02.17.02.23l.08,1.15.08,1.4c0,.08,0,.17.01.29,0,.11,0,.24,0,.38l.08,4.93h-1.5v-11.31Z" fill="#8b3076" opacity=".5" stroke-width="0"/>
    <path d="M432.75,461.5h4.05v1.29h-2.53v3.58h2.24v1.29h-2.24v3.86h2.53v1.29h-4.05v-11.31Z" fill="#8b3076" opacity=".5" stroke-width="0"/>
    <path d="M438.2,461.5h2.01c.83,0,1.45.2,1.85.59.51.51.77,1.3.77,2.35,0,.81-.14,1.46-.41,1.95-.27.49-.66.79-1.16.91l2.08,5.5h-1.55l-2.07-5.54v5.54h-1.52v-11.31ZM439.73,466.51c.59,0,1.01-.14,1.25-.41s.37-.73.37-1.38c0-.35-.03-.65-.08-.9-.05-.25-.13-.45-.24-.61-.11-.16-.25-.27-.42-.34-.17-.07-.38-.11-.62-.11h-.26v3.76Z" fill="#8b3076" opacity=".5" stroke-width="0"/>
    <path d="M448.29,461.73v1.49c-.46-.33-.88-.5-1.25-.5-.4,0-.73.14-.98.42-.25.27-.38.63-.38,1.08,0,.4.09.74.27,1.02.09.15.25.35.46.59.21.24.49.53.82.86.62.63,1.04,1.17,1.27,1.63.22.44.34.99.34,1.63,0,.87-.25,1.59-.74,2.16-.49.55-1.12.83-1.9.83-.65,0-1.2-.18-1.66-.54v-1.51c.54.4,1.04.59,1.48.59.42,0,.74-.14.97-.41.23-.28.35-.65.35-1.12,0-.41-.09-.78-.27-1.11-.09-.16-.22-.33-.39-.54-.17-.2-.37-.43-.62-.68-.39-.38-.71-.72-.96-1.01s-.44-.55-.56-.77c-.23-.43-.35-.97-.35-1.63,0-.88.23-1.58.69-2.1.46-.52,1.09-.78,1.87-.78.54,0,1.06.13,1.55.39Z" fill="#8b3076" opacity=".5" stroke-width="0"/>
    <path d="M454.59,460.19l1.49.36c-.87,2.76-1.3,5.24-1.3,7.44,0,2.49.43,5.06,1.3,7.71l-1.49.39c-.93-2.65-1.39-5.31-1.39-7.98s.46-5.37,1.39-7.92Z" fill="#8b3076" opacity=".5" stroke-width="0"/>
    <path d="M456.72,461.5h4.96v1.33h-1.71v9.98h-1.49v-9.98h-1.76v-1.33Z" fill="#8b3076" opacity=".5" stroke-width="0"/>
    <path d="M462.53,461.5h1.52v4.42h2.23v-4.42h1.52v11.31h-1.52v-5.6h-2.23v5.6h-1.52v-11.31Z" fill="#8b3076" opacity=".5" stroke-width="0"/>
    <path d="M469.55,461.5h4.05v1.29h-2.53v3.58h2.24v1.29h-2.24v3.86h2.53v1.29h-4.05v-11.31Z" fill="#8b3076" opacity=".5" stroke-width="0"/>
    <path d="M478.1,461.5h2.07c1.62,0,2.42,1,2.42,3.01,0,.77-.1,1.33-.31,1.71s-.58.65-1.11.84c.61.24,1.03.56,1.25.94.23.38.34.94.34,1.7,0,2.08-.89,3.11-2.67,3.11h-1.99v-11.31ZM479.54,466.48c.59,0,1-.14,1.23-.41.23-.29.34-.79.34-1.52,0-1.22-.44-1.83-1.32-1.83h-.18s-.06,0-.07,0v3.75ZM479.54,471.5c.62,0,1.06-.13,1.3-.4s.36-.75.36-1.46-.12-1.23-.37-1.52c-.24-.29-.67-.44-1.28-.44v3.82Z" fill="#8b3076" opacity=".5" stroke-width="0"/>
    <path d="M484.28,461.5h1.52v11.31h-1.52v-11.31Z" fill="#8b3076" opacity=".5" stroke-width="0"/>
    <path d="M487.54,461.5h1.52v10.02h2.49v1.29h-4.01v-11.31Z" fill="#8b3076" opacity=".5" stroke-width="0"/>
    <path d="M492.51,461.5h1.52v10.02h2.49v1.29h-4.01v-11.31Z" fill="#8b3076" opacity=".5" stroke-width="0"/>
    <path d="M497.48,461.5h1.52v11.31h-1.52v-11.31Z" fill="#8b3076" opacity=".5" stroke-width="0"/>
    <path d="M506.41,467.43c0,2-.22,3.42-.67,4.26s-1.19,1.26-2.23,1.26c-1.1,0-1.87-.45-2.32-1.36-.44-.88-.67-2.45-.67-4.71,0-2.01.22-3.44.66-4.27.44-.84,1.2-1.26,2.26-1.26.95,0,1.65.33,2.11.97.3.43.52,1.05.66,1.85.14.74.21,1.83.21,3.25ZM504.81,467.59c0-1.96-.09-3.26-.26-3.9-.18-.64-.54-.97-1.08-.97s-.9.3-1.08.89c-.18.6-.26,1.79-.26,3.59,0,1.66.09,2.8.28,3.44.19.61.55.91,1.07.91s.86-.28,1.05-.85c.19-.56.29-1.6.29-3.11Z" fill="#8b3076" opacity=".5" stroke-width="0"/>
    <path d="M507.91,461.5h1.42l1.52,4.51c.44,1.27.83,2.63,1.17,4.08-.12-.87-.21-1.67-.27-2.37s-.09-1.38-.09-2v-4.22h1.53v11.31h-1.43l-1.71-5.09c-.16-.47-.3-.96-.44-1.46-.14-.5-.27-1.02-.38-1.57,0-.07-.03-.15-.05-.25-.02-.1-.05-.21-.08-.34.01.13.03.24.04.33,0,.09.02.17.02.23l.08,1.15.08,1.4c0,.08,0,.17.01.29,0,.11,0,.24,0,.38l.08,4.93h-1.5v-11.31Z" fill="#8b3076" opacity=".5" stroke-width="0"/>
    <path d="M516.75,461.5h1.19l2.42,11.31h-1.51l-.42-2.2h-2.24l-.43,2.2h-1.46l2.46-11.31ZM518.21,469.42l-.34-1.8c-.22-1.23-.41-2.53-.55-3.93-.07.68-.16,1.37-.26,2.06-.11.7-.23,1.43-.38,2.22l-.28,1.45h1.81Z" fill="#8b3076" opacity=".5" stroke-width="0"/>
    <path d="M521.26,461.5h1.52v11.31h-1.52v-11.31Z" fill="#8b3076" opacity=".5" stroke-width="0"/>
    <path d="M524.53,461.5h2.01c.83,0,1.45.2,1.85.59.51.51.77,1.3.77,2.35,0,.81-.14,1.46-.41,1.95-.27.49-.66.79-1.16.91l2.08,5.5h-1.55l-2.07-5.54v5.54h-1.52v-11.31ZM526.05,466.51c.59,0,1.01-.14,1.25-.41s.37-.73.37-1.38c0-.35-.03-.65-.08-.9-.05-.25-.13-.45-.24-.61-.11-.16-.25-.27-.42-.34-.17-.07-.38-.11-.62-.11h-.26v3.76Z" fill="#8b3076" opacity=".5" stroke-width="0"/>
    <path d="M530.85,461.5h4.05v1.29h-2.53v3.58h2.24v1.29h-2.24v3.86h2.53v1.29h-4.05v-11.31Z" fill="#8b3076" opacity=".5" stroke-width="0"/>
    <path d="M540.07,461.73v1.49c-.46-.33-.88-.5-1.25-.5-.4,0-.73.14-.98.42-.25.27-.38.63-.38,1.08,0,.4.09.74.27,1.02.09.15.25.35.46.59.21.24.49.53.82.86.62.63,1.04,1.17,1.27,1.63.22.44.34.99.34,1.63,0,.87-.25,1.59-.74,2.16-.49.55-1.12.83-1.9.83-.65,0-1.2-.18-1.66-.54v-1.51c.54.4,1.04.59,1.48.59.42,0,.74-.14.97-.41.23-.28.35-.65.35-1.12,0-.41-.09-.78-.27-1.11-.09-.16-.22-.33-.39-.54-.17-.2-.37-.43-.62-.68-.39-.38-.71-.72-.96-1.01s-.44-.55-.56-.77c-.23-.43-.35-.97-.35-1.63,0-.88.23-1.58.69-2.1.46-.52,1.09-.78,1.87-.78.54,0,1.06.13,1.55.39Z" fill="#8b3076" opacity=".5" stroke-width="0"/>
    <path d="M543.19,476.09l-1.49-.36c.87-2.76,1.3-5.24,1.3-7.43,0-2.48-.43-5.05-1.3-7.72l1.49-.39c.93,2.65,1.39,5.31,1.39,7.99s-.46,5.37-1.39,7.91Z" fill="#8b3076" opacity=".5" stroke-width="0"/>
  </g>
  <g>
    <path d="M331.86,488.06h4.96v1.33h-1.71v9.98h-1.49v-9.98h-1.76v-1.33Z" fill="#d86c01" opacity=".5" stroke-width="0"/>
    <path d="M343.42,493.99c0,2-.22,3.42-.67,4.26s-1.19,1.26-2.23,1.26c-1.1,0-1.87-.45-2.32-1.36-.44-.88-.67-2.45-.67-4.71,0-2.01.22-3.44.66-4.27.44-.84,1.2-1.26,2.26-1.26.95,0,1.65.33,2.11.97.3.44.52,1.05.66,1.85.14.74.21,1.83.21,3.25ZM341.83,494.15c0-1.96-.09-3.26-.26-3.9-.18-.64-.53-.97-1.08-.97s-.9.3-1.08.89c-.18.6-.26,1.79-.26,3.59,0,1.65.09,2.8.28,3.44.19.61.55.91,1.07.91s.86-.28,1.05-.85c.19-.56.29-1.6.29-3.11Z" fill="#d86c01" opacity=".5" stroke-width="0"/>
    <path d="M344.93,488.06h2.01c.97,0,1.67.24,2.11.73.44.49.66,1.27.66,2.34,0,1.5-.44,2.48-1.33,2.92-.44.2-1.09.3-1.93.3v5.02h-1.52v-11.31ZM346.46,493.05c.63,0,1.06-.13,1.3-.38.24-.26.37-.72.37-1.38s-.12-1.17-.35-1.48-.6-.47-1.11-.47h-.21v3.71Z" fill="#d86c01" opacity=".5" stroke-width="0"/>
    <path d="M356.31,499.37h-1.63l1.09-2.2c.2-.4.39-.81.58-1.23.19-.42.38-.86.57-1.32-.38.3-.76.45-1.17.45-.67,0-1.16-.27-1.48-.81s-.48-1.38-.48-2.52c0-1.37.19-2.35.56-2.94s.99-.89,1.85-.89,1.5.3,1.88.89.56,1.59.56,2.97c0,1.03-.12,1.97-.35,2.84-.11.43-.27.91-.48,1.44-.21.53-.47,1.12-.78,1.78l-.59,1.24-.13.28ZM357.17,491.55c0-1.49-.32-2.23-.96-2.23s-.95.73-.95,2.2c0,.77.07,1.33.22,1.68.15.35.39.52.73.52s.58-.17.73-.52c.15-.34.23-.89.23-1.65Z" fill="#d86c01" opacity=".5" stroke-width="0"/>
    <path d="M364.99,493.8c0,2.03-.2,3.5-.59,4.39-.39.87-1.04,1.3-1.97,1.3s-1.59-.44-1.98-1.31c-.39-.85-.58-2.34-.58-4.48s.19-3.63.58-4.48c.39-.88,1.04-1.32,1.97-1.32.86,0,1.49.39,1.9,1.16.44.81.66,2.39.66,4.72ZM363.43,493.8c0-1.71-.07-2.89-.22-3.54-.15-.65-.41-.97-.8-.97s-.65.32-.81.97c-.15.64-.22,1.8-.22,3.48s.07,2.84.22,3.49c.15.64.42.97.81.97s.64-.32.79-.96c.15-.61.23-1.75.23-3.42Z" fill="#d86c01" opacity=".5" stroke-width="0"/>
    <path d="M369.32,490.73c0,1.77-.55,2.65-1.64,2.65-.55,0-.96-.22-1.21-.65-.26-.43-.38-1.11-.38-2.03s.13-1.6.38-2.03.66-.64,1.22-.64.97.22,1.24.66c.27.44.4,1.12.4,2.05ZM372.22,488.06h.93l-5.61,11.31h-.93l5.61-11.31ZM368.32,490.73c0-.64-.05-1.1-.15-1.38s-.26-.42-.48-.42-.38.13-.47.39c-.09.26-.13.73-.13,1.38s.04,1.12.13,1.38c.09.26.25.39.47.39s.38-.14.48-.41.15-.73.15-1.35ZM373.69,496.92c0,1.74-.53,2.62-1.6,2.62-.55,0-.95-.21-1.21-.64s-.39-1.1-.39-2.01c0-1.78.53-2.67,1.59-2.67s1.61.9,1.61,2.7ZM372.71,496.91c0-.63-.05-1.09-.14-1.37-.09-.28-.25-.42-.47-.42s-.37.13-.46.39c-.08.29-.12.75-.12,1.38,0,.66.04,1.12.13,1.38.09.26.24.39.45.39.41,0,.62-.58.62-1.75Z" fill="#d86c01" opacity=".5" stroke-width="0"/>
    <path d="M383.87,493.99c0,2-.22,3.42-.67,4.26s-1.19,1.26-2.23,1.26c-1.1,0-1.87-.45-2.32-1.36-.44-.88-.67-2.45-.67-4.71,0-2.01.22-3.44.66-4.27.44-.84,1.2-1.26,2.26-1.26.95,0,1.65.33,2.11.97.3.44.52,1.05.66,1.85.14.74.21,1.83.21,3.25ZM382.27,494.15c0-1.96-.09-3.26-.26-3.9-.18-.64-.53-.97-1.08-.97s-.9.3-1.08.89c-.18.6-.26,1.79-.26,3.59,0,1.65.09,2.8.28,3.44.19.61.55.91,1.07.91s.86-.28,1.05-.85c.19-.56.29-1.6.29-3.11Z" fill="#d86c01" opacity=".5" stroke-width="0"/>
    <path d="M385.38,488.06h4.07v1.29h-2.55v3.57h2.3v1.29h-2.3v5.16h-1.52v-11.31Z" fill="#d86c01" opacity=".5" stroke-width="0"/>
    <path d="M393.73,488.06h4.05v1.29h-2.53v3.58h2.24v1.29h-2.24v3.86h2.53v1.29h-4.05v-11.31Z" fill="#d86c01" opacity=".5" stroke-width="0"/>
    <path d="M400.79,488.06h1.19l2.42,11.31h-1.51l-.42-2.2h-2.24l-.43,2.2h-1.46l2.46-11.31ZM402.25,495.99l-.34-1.8c-.22-1.23-.41-2.53-.55-3.93-.07.68-.16,1.37-.26,2.06-.11.7-.23,1.43-.38,2.22l-.28,1.45h1.81Z" fill="#d86c01" opacity=".5" stroke-width="0"/>
    <path d="M405.29,488.06h2.01c.83,0,1.45.2,1.85.59.51.51.77,1.3.77,2.35,0,.81-.14,1.46-.41,1.95-.27.49-.66.79-1.16.91l2.08,5.5h-1.55l-2.07-5.54v5.54h-1.52v-11.31ZM406.82,493.07c.59,0,1.01-.14,1.25-.41s.37-.74.37-1.38c0-.35-.03-.65-.08-.9-.05-.25-.13-.45-.24-.61-.11-.16-.25-.27-.42-.34-.17-.07-.38-.11-.62-.11h-.26v3.76Z" fill="#d86c01" opacity=".5" stroke-width="0"/>
    <path d="M411.61,488.06h1.42l1.52,4.51c.44,1.27.83,2.63,1.16,4.08-.12-.87-.21-1.66-.27-2.37-.06-.71-.09-1.37-.09-2v-4.22h1.53v11.31h-1.43l-1.71-5.09c-.16-.47-.3-.96-.44-1.46-.14-.5-.27-1.02-.38-1.57,0-.07-.03-.15-.05-.25-.02-.1-.05-.21-.08-.34.01.13.03.24.04.33s.02.17.02.23l.08,1.15.08,1.4c0,.08,0,.17.01.29,0,.11,0,.24,0,.38l.08,4.93h-1.5v-11.31Z" fill="#d86c01" opacity=".5" stroke-width="0"/>
    <path d="M418.63,488.06h4.05v1.29h-2.53v3.58h2.24v1.29h-2.24v3.86h2.53v1.29h-4.05v-11.31Z" fill="#d86c01" opacity=".5" stroke-width="0"/>
    <path d="M424.08,488.06h2.01c.83,0,1.45.2,1.85.59.51.51.77,1.3.77,2.35,0,.81-.13,1.46-.41,1.95-.27.49-.66.79-1.16.91l2.08,5.5h-1.54l-2.07-5.54v5.54h-1.52v-11.31ZM425.6,493.07c.59,0,1.01-.14,1.25-.41s.37-.74.37-1.38c0-.35-.03-.65-.08-.9-.05-.25-.13-.45-.24-.61-.11-.16-.25-.27-.42-.34-.17-.07-.38-.11-.62-.11h-.26v3.76Z" fill="#d86c01" opacity=".5" stroke-width="0"/>
    <path d="M434.17,488.3v1.49c-.46-.33-.88-.5-1.25-.5-.4,0-.73.14-.98.42-.25.27-.38.63-.38,1.08,0,.4.09.74.27,1.02.09.15.25.35.46.59.21.24.49.53.82.86.62.63,1.04,1.17,1.27,1.63.22.44.34.99.34,1.63,0,.87-.25,1.59-.74,2.16-.49.55-1.13.83-1.9.83-.65,0-1.2-.18-1.66-.54v-1.51c.54.4,1.04.59,1.48.59.42,0,.74-.14.97-.41s.35-.65.35-1.12c0-.41-.09-.78-.27-1.11-.09-.16-.22-.33-.39-.54s-.37-.43-.62-.68c-.39-.38-.71-.72-.96-1.01s-.44-.55-.56-.77c-.23-.43-.35-.97-.35-1.63,0-.88.23-1.58.69-2.1.46-.52,1.09-.78,1.87-.78.54,0,1.06.13,1.55.39Z" fill="#d86c01" opacity=".5" stroke-width="0"/>
  </g>
  <g>
    <path d="M332.6,515.6h4.96v1.33h-1.71v9.98h-1.49v-9.98h-1.76v-1.33Z" fill="#01608a" opacity=".5" stroke-width="0"/>
    <path d="M344.16,521.53c0,2-.22,3.42-.67,4.26s-1.19,1.26-2.23,1.26c-1.1,0-1.87-.45-2.32-1.36-.44-.88-.67-2.45-.67-4.71,0-2.01.22-3.44.66-4.27.44-.84,1.2-1.26,2.26-1.26.95,0,1.65.33,2.11.97.3.44.52,1.05.66,1.85.14.74.21,1.83.21,3.25ZM342.56,521.69c0-1.96-.09-3.26-.26-3.9-.18-.64-.53-.97-1.08-.97s-.9.3-1.08.89c-.18.6-.26,1.79-.26,3.59,0,1.65.09,2.8.28,3.44.19.61.55.91,1.07.91s.86-.28,1.05-.85c.19-.56.29-1.6.29-3.11Z" fill="#01608a" opacity=".5" stroke-width="0"/>
    <path d="M345.67,515.6h2.01c.97,0,1.67.24,2.11.73.44.49.66,1.27.66,2.34,0,1.5-.44,2.48-1.33,2.92-.44.2-1.09.3-1.93.3v5.02h-1.52v-11.31ZM347.19,520.58c.63,0,1.06-.13,1.3-.38.24-.26.37-.72.37-1.38s-.12-1.17-.35-1.48-.6-.47-1.11-.47h-.21v3.71Z" fill="#01608a" opacity=".5" stroke-width="0"/>
    <path d="M358.07,520.77c.51.19.86.48,1.05.89.19.4.29,1.06.29,1.97,0,1.17-.2,2.03-.59,2.58-.39.55-1.01.83-1.85.83s-1.46-.28-1.86-.83c-.39-.55-.59-1.41-.59-2.58,0-.91.1-1.57.29-1.97.19-.41.54-.7,1.05-.89-.45-.2-.77-.48-.95-.86-.19-.41-.28-.96-.28-1.66,0-.48.04-.9.14-1.25.09-.35.23-.64.42-.87.19-.23.43-.39.73-.5.29-.11.65-.16,1.06-.16s.76.05,1.05.16.54.27.73.5c.19.23.33.52.42.87.09.35.14.77.14,1.25,0,.7-.09,1.25-.28,1.66-.19.38-.5.67-.95.86ZM357.9,523.8c0-.4-.02-.73-.05-1.01-.03-.28-.09-.51-.17-.68s-.18-.31-.3-.39c-.12-.08-.26-.12-.43-.12-.33,0-.57.17-.71.51-.15.34-.22.88-.22,1.63,0,1.31.31,1.97.94,1.97s.94-.63.94-1.9ZM357.8,518.36c0-1.06-.28-1.6-.84-1.6s-.83.53-.83,1.58c0,1.17.28,1.76.84,1.76s.83-.58.83-1.74Z" fill="#01608a" opacity=".5" stroke-width="0"/>
    <path d="M365.72,521.34c0,2.03-.2,3.5-.59,4.39-.39.87-1.04,1.3-1.97,1.3s-1.59-.44-1.98-1.31c-.39-.85-.58-2.34-.58-4.48s.19-3.63.58-4.48c.39-.88,1.04-1.32,1.97-1.32.86,0,1.49.39,1.9,1.16.44.81.66,2.39.66,4.72ZM364.17,521.34c0-1.71-.07-2.89-.22-3.54-.15-.65-.41-.97-.8-.97s-.65.32-.81.97c-.15.64-.22,1.8-.22,3.48s.07,2.84.22,3.49c.15.64.42.97.81.97s.64-.32.79-.96c.15-.61.23-1.75.23-3.42Z" fill="#01608a" opacity=".5" stroke-width="0"/>
    <path d="M370.05,518.26c0,1.77-.55,2.65-1.64,2.65-.55,0-.96-.22-1.21-.65-.26-.43-.38-1.11-.38-2.03s.13-1.6.38-2.03.66-.64,1.22-.64.97.22,1.24.66c.27.44.4,1.12.4,2.05ZM372.96,515.6h.93l-5.61,11.31h-.93l5.61-11.31ZM369.06,518.26c0-.64-.05-1.1-.15-1.38s-.26-.42-.48-.42-.38.13-.47.39c-.09.26-.13.73-.13,1.38s.04,1.12.13,1.38c.09.26.25.39.47.39s.38-.14.48-.41.15-.73.15-1.35ZM374.42,524.45c0,1.74-.53,2.62-1.6,2.62-.55,0-.95-.21-1.21-.64s-.39-1.1-.39-2.01c0-1.78.53-2.67,1.59-2.67s1.61.9,1.61,2.7ZM373.44,524.44c0-.63-.05-1.09-.14-1.37-.09-.28-.25-.42-.47-.42s-.37.13-.46.39c-.08.29-.12.75-.12,1.38,0,.66.04,1.12.13,1.38.09.26.24.39.45.39.41,0,.62-.58.62-1.75Z" fill="#01608a" opacity=".5" stroke-width="0"/>
    <path d="M384.6,521.53c0,2-.22,3.42-.67,4.26s-1.19,1.26-2.23,1.26c-1.1,0-1.87-.45-2.32-1.36-.44-.88-.67-2.45-.67-4.71,0-2.01.22-3.44.66-4.27.44-.84,1.2-1.26,2.26-1.26.95,0,1.65.33,2.11.97.3.44.52,1.05.66,1.85.14.74.21,1.83.21,3.25ZM383.01,521.69c0-1.96-.09-3.26-.26-3.9-.18-.64-.53-.97-1.08-.97s-.9.3-1.08.89c-.18.6-.26,1.79-.26,3.59,0,1.65.09,2.8.28,3.44.19.61.55.91,1.07.91s.86-.28,1.05-.85c.19-.56.29-1.6.29-3.11Z" fill="#01608a" opacity=".5" stroke-width="0"/>
    <path d="M386.11,515.6h4.07v1.29h-2.55v3.57h2.3v1.29h-2.3v5.16h-1.52v-11.31Z" fill="#01608a" opacity=".5" stroke-width="0"/>
    <path d="M394.46,515.6h4.05v1.29h-2.53v3.58h2.24v1.29h-2.24v3.86h2.53v1.29h-4.05v-11.31Z" fill="#01608a" opacity=".5" stroke-width="0"/>
    <path d="M401.52,515.6h1.19l2.42,11.31h-1.51l-.42-2.2h-2.24l-.43,2.2h-1.46l2.46-11.31ZM402.98,523.52l-.34-1.8c-.22-1.23-.41-2.53-.55-3.93-.07.68-.16,1.37-.26,2.06-.11.7-.23,1.43-.38,2.22l-.28,1.45h1.81Z" fill="#01608a" opacity=".5" stroke-width="0"/>
    <path d="M406.03,515.6h2.01c.83,0,1.45.2,1.85.59.51.51.77,1.3.77,2.35,0,.81-.14,1.46-.41,1.95-.27.49-.66.79-1.16.91l2.08,5.5h-1.55l-2.07-5.54v5.54h-1.52v-11.31ZM407.55,520.61c.59,0,1.01-.14,1.25-.41s.37-.74.37-1.38c0-.35-.03-.65-.08-.9-.05-.25-.13-.45-.24-.61-.11-.16-.25-.27-.42-.34-.17-.07-.38-.11-.62-.11h-.26v3.76Z" fill="#01608a" opacity=".5" stroke-width="0"/>
    <path d="M412.35,515.6h1.42l1.52,4.51c.44,1.27.83,2.63,1.16,4.08-.12-.87-.21-1.66-.27-2.37-.06-.71-.09-1.37-.09-2v-4.22h1.53v11.31h-1.43l-1.71-5.09c-.16-.47-.3-.96-.44-1.46-.14-.5-.27-1.02-.38-1.57,0-.07-.03-.15-.05-.25-.02-.1-.05-.21-.08-.34.01.13.03.24.04.33s.02.17.02.23l.08,1.15.08,1.4c0,.08,0,.17.01.29,0,.11,0,.24,0,.38l.08,4.93h-1.5v-11.31Z" fill="#01608a" opacity=".5" stroke-width="0"/>
    <path d="M419.37,515.6h4.05v1.29h-2.53v3.58h2.24v1.29h-2.24v3.86h2.53v1.29h-4.05v-11.31Z" fill="#01608a" opacity=".5" stroke-width="0"/>
    <path d="M424.81,515.6h2.01c.83,0,1.45.2,1.85.59.51.51.77,1.3.77,2.35,0,.81-.13,1.46-.41,1.95-.27.49-.66.79-1.16.91l2.08,5.5h-1.54l-2.07-5.54v5.54h-1.52v-11.31ZM426.34,520.61c.59,0,1.01-.14,1.25-.41s.37-.74.37-1.38c0-.35-.03-.65-.08-.9-.05-.25-.13-.45-.24-.61-.11-.16-.25-.27-.42-.34-.17-.07-.38-.11-.62-.11h-.26v3.76Z" fill="#01608a" opacity=".5" stroke-width="0"/>
    <path d="M434.91,515.83v1.49c-.46-.33-.88-.5-1.25-.5-.4,0-.73.14-.98.42-.25.27-.38.63-.38,1.08,0,.4.09.74.27,1.02.09.15.25.35.46.59.21.24.49.53.82.86.62.63,1.04,1.17,1.27,1.63.22.44.34.99.34,1.63,0,.87-.25,1.59-.74,2.16-.49.55-1.13.83-1.9.83-.65,0-1.2-.18-1.66-.54v-1.51c.54.4,1.04.59,1.48.59.42,0,.74-.14.97-.41s.35-.65.35-1.12c0-.41-.09-.78-.27-1.11-.09-.16-.22-.33-.39-.54s-.37-.43-.62-.68c-.39-.38-.71-.72-.96-1.01s-.44-.55-.56-.77c-.23-.43-.35-.97-.35-1.63,0-.88.23-1.58.69-2.1.46-.52,1.09-.78,1.87-.78.54,0,1.06.13,1.55.39Z" fill="#01608a" opacity=".5" stroke-width="0"/>
  </g>
  <g>
    <path d="M332.6,542.6h4.96v1.33h-1.71v9.98h-1.49v-9.98h-1.76v-1.33Z" fill="#5b8f77" opacity=".5" stroke-width="0"/>
    <path d="M344.16,548.53c0,2-.22,3.42-.67,4.26s-1.19,1.26-2.23,1.26c-1.1,0-1.87-.45-2.32-1.36-.44-.88-.67-2.45-.67-4.71,0-2.01.22-3.44.66-4.27.44-.84,1.2-1.26,2.26-1.26.95,0,1.65.33,2.11.97.3.44.52,1.05.66,1.85.14.74.21,1.83.21,3.25ZM342.56,548.69c0-1.96-.09-3.26-.26-3.9-.18-.64-.53-.97-1.08-.97s-.9.3-1.08.89c-.18.6-.26,1.79-.26,3.59,0,1.65.09,2.8.28,3.44.19.61.55.91,1.07.91s.86-.28,1.05-.85c.19-.56.29-1.6.29-3.11Z" fill="#5b8f77" opacity=".5" stroke-width="0"/>
    <path d="M345.67,542.6h2.01c.97,0,1.67.24,2.11.73.44.49.66,1.27.66,2.34,0,1.5-.44,2.48-1.33,2.92-.44.2-1.09.3-1.93.3v5.02h-1.52v-11.31ZM347.19,547.58c.63,0,1.06-.13,1.3-.38.24-.26.37-.72.37-1.38s-.12-1.17-.35-1.48-.6-.47-1.11-.47h-.21v3.71Z" fill="#5b8f77" opacity=".5" stroke-width="0"/>
    <path d="M354.58,542.6h5.05l-3.43,11.31h-1.63l3.14-10.02h-3.14v-1.29Z" fill="#5b8f77" opacity=".5" stroke-width="0"/>
    <path d="M365.72,548.34c0,2.03-.2,3.5-.59,4.39-.39.87-1.04,1.3-1.97,1.3s-1.59-.44-1.98-1.31c-.39-.85-.58-2.34-.58-4.48s.19-3.63.58-4.48c.39-.88,1.04-1.32,1.97-1.32.86,0,1.49.39,1.9,1.16.44.81.66,2.39.66,4.72ZM364.17,548.34c0-1.71-.07-2.89-.22-3.54-.15-.65-.41-.97-.8-.97s-.65.32-.81.97c-.15.64-.22,1.8-.22,3.48s.07,2.84.22,3.49c.15.64.42.97.81.97s.64-.32.79-.96c.15-.61.23-1.75.23-3.42Z" fill="#5b8f77" opacity=".5" stroke-width="0"/>
    <path d="M370.05,545.26c0,1.77-.55,2.65-1.64,2.65-.55,0-.96-.22-1.21-.65-.26-.43-.38-1.11-.38-2.03s.13-1.6.38-2.03.66-.64,1.22-.64.97.22,1.24.66c.27.44.4,1.12.4,2.05ZM372.96,542.6h.93l-5.61,11.31h-.93l5.61-11.31ZM369.06,545.26c0-.64-.05-1.1-.15-1.38s-.26-.42-.48-.42-.38.13-.47.39c-.09.26-.13.73-.13,1.38s.04,1.12.13,1.38c.09.26.25.39.47.39s.38-.14.48-.41.15-.73.15-1.35ZM374.42,551.45c0,1.74-.53,2.62-1.6,2.62-.55,0-.95-.21-1.21-.64s-.39-1.1-.39-2.01c0-1.78.53-2.67,1.59-2.67s1.61.9,1.61,2.7ZM373.44,551.44c0-.63-.05-1.09-.14-1.37-.09-.28-.25-.42-.47-.42s-.37.13-.46.39c-.08.29-.12.75-.12,1.38,0,.66.04,1.12.13,1.38.09.26.24.39.45.39.41,0,.62-.58.62-1.75Z" fill="#5b8f77" opacity=".5" stroke-width="0"/>
    <path d="M384.6,548.53c0,2-.22,3.42-.67,4.26s-1.19,1.26-2.23,1.26c-1.1,0-1.87-.45-2.32-1.36-.44-.88-.67-2.45-.67-4.71,0-2.01.22-3.44.66-4.27.44-.84,1.2-1.26,2.26-1.26.95,0,1.65.33,2.11.97.3.44.52,1.05.66,1.85.14.74.21,1.83.21,3.25ZM383.01,548.69c0-1.96-.09-3.26-.26-3.9-.18-.64-.53-.97-1.08-.97s-.9.3-1.08.89c-.18.6-.26,1.79-.26,3.59,0,1.65.09,2.8.28,3.44.19.61.55.91,1.07.91s.86-.28,1.05-.85c.19-.56.29-1.6.29-3.11Z" fill="#5b8f77" opacity=".5" stroke-width="0"/>
    <path d="M386.11,542.6h4.07v1.29h-2.55v3.57h2.3v1.29h-2.3v5.16h-1.52v-11.31Z" fill="#5b8f77" opacity=".5" stroke-width="0"/>
    <path d="M394.46,542.6h4.05v1.29h-2.53v3.58h2.24v1.29h-2.24v3.86h2.53v1.29h-4.05v-11.31Z" fill="#5b8f77" opacity=".5" stroke-width="0"/>
    <path d="M401.52,542.6h1.19l2.42,11.31h-1.51l-.42-2.2h-2.24l-.43,2.2h-1.46l2.46-11.31ZM402.98,550.52l-.34-1.8c-.22-1.23-.41-2.53-.55-3.93-.07.68-.16,1.37-.26,2.06-.11.7-.23,1.43-.38,2.22l-.28,1.45h1.81Z" fill="#5b8f77" opacity=".5" stroke-width="0"/>
    <path d="M406.03,542.6h2.01c.83,0,1.45.2,1.85.59.51.51.77,1.3.77,2.35,0,.81-.14,1.46-.41,1.95-.27.49-.66.79-1.16.91l2.08,5.5h-1.55l-2.07-5.54v5.54h-1.52v-11.31ZM407.55,547.61c.59,0,1.01-.14,1.25-.41s.37-.74.37-1.38c0-.35-.03-.65-.08-.9-.05-.25-.13-.45-.24-.61-.11-.16-.25-.27-.42-.34-.17-.07-.38-.11-.62-.11h-.26v3.76Z" fill="#5b8f77" opacity=".5" stroke-width="0"/>
    <path d="M412.35,542.6h1.42l1.52,4.51c.44,1.27.83,2.63,1.16,4.08-.12-.87-.21-1.66-.27-2.37-.06-.71-.09-1.37-.09-2v-4.22h1.53v11.31h-1.43l-1.71-5.09c-.16-.47-.3-.96-.44-1.46-.14-.5-.27-1.02-.38-1.57,0-.07-.03-.15-.05-.25-.02-.1-.05-.21-.08-.34.01.13.03.24.04.33s.02.17.02.23l.08,1.15.08,1.4c0,.08,0,.17.01.29,0,.11,0,.24,0,.38l.08,4.93h-1.5v-11.31Z" fill="#5b8f77" opacity=".5" stroke-width="0"/>
    <path d="M419.37,542.6h4.05v1.29h-2.53v3.58h2.24v1.29h-2.24v3.86h2.53v1.29h-4.05v-11.31Z" fill="#5b8f77" opacity=".5" stroke-width="0"/>
    <path d="M424.81,542.6h2.01c.83,0,1.45.2,1.85.59.51.51.77,1.3.77,2.35,0,.81-.13,1.46-.41,1.95-.27.49-.66.79-1.16.91l2.08,5.5h-1.54l-2.07-5.54v5.54h-1.52v-11.31ZM426.34,547.61c.59,0,1.01-.14,1.25-.41s.37-.74.37-1.38c0-.35-.03-.65-.08-.9-.05-.25-.13-.45-.24-.61-.11-.16-.25-.27-.42-.34-.17-.07-.38-.11-.62-.11h-.26v3.76Z" fill="#5b8f77" opacity=".5" stroke-width="0"/>
    <path d="M434.91,542.83v1.49c-.46-.33-.88-.5-1.25-.5-.4,0-.73.14-.98.42-.25.27-.38.63-.38,1.08,0,.4.09.74.27,1.02.09.15.25.35.46.59.21.24.49.53.82.86.62.63,1.04,1.17,1.27,1.63.22.44.34.99.34,1.63,0,.87-.25,1.59-.74,2.16-.49.55-1.13.83-1.9.83-.65,0-1.2-.18-1.66-.54v-1.51c.54.4,1.04.59,1.48.59.42,0,.74-.14.97-.41s.35-.65.35-1.12c0-.41-.09-.78-.27-1.11-.09-.16-.22-.33-.39-.54s-.37-.43-.62-.68c-.39-.38-.71-.72-.96-1.01s-.44-.55-.56-.77c-.23-.43-.35-.97-.35-1.63,0-.88.23-1.58.69-2.1.46-.52,1.09-.78,1.87-.78.54,0,1.06.13,1.55.39Z" fill="#5b8f77" opacity=".5" stroke-width="0"/>
  </g>
  <g>
    <path d="M332.19,568.94h4.96v1.33h-1.71v9.98h-1.49v-9.98h-1.76v-1.33Z" fill="#919191" opacity=".5" stroke-width="0"/>
    <path d="M343.75,574.88c0,2-.22,3.42-.67,4.26s-1.19,1.26-2.23,1.26c-1.1,0-1.87-.45-2.32-1.36-.44-.88-.67-2.45-.67-4.71,0-2.01.22-3.44.66-4.27.44-.84,1.2-1.26,2.26-1.26.95,0,1.65.33,2.11.97.3.44.52,1.05.66,1.85.14.74.21,1.83.21,3.25ZM342.15,575.04c0-1.96-.09-3.26-.26-3.9-.18-.64-.53-.97-1.08-.97s-.9.3-1.08.89c-.18.6-.26,1.79-.26,3.59,0,1.65.09,2.8.28,3.44.19.61.55.91,1.07.91s.86-.28,1.05-.85c.19-.56.29-1.6.29-3.11Z" fill="#919191" opacity=".5" stroke-width="0"/>
    <path d="M345.26,568.94h2.01c.97,0,1.67.24,2.11.73.44.49.66,1.27.66,2.34,0,1.5-.44,2.48-1.33,2.92-.44.2-1.09.3-1.93.3v5.02h-1.52v-11.31ZM346.78,573.93c.63,0,1.06-.13,1.3-.38.24-.26.37-.72.37-1.38s-.12-1.17-.35-1.48-.6-.47-1.11-.47h-.21v3.71Z" fill="#919191" opacity=".5" stroke-width="0"/>
    <path d="M356.41,568.94h1.62l-1.06,2.17c-.19.4-.37.82-.56,1.26-.19.45-.38.92-.59,1.42.42-.34.83-.51,1.22-.51.63,0,1.12.27,1.46.82.32.51.48,1.43.48,2.75,0,1.25-.19,2.15-.56,2.7-.38.54-.99.81-1.84.81s-1.5-.3-1.88-.9c-.39-.61-.58-1.59-.58-2.96,0-1.15.15-2.24.45-3.28.16-.52.39-1.13.69-1.83.3-.7.69-1.53,1.15-2.47ZM357.52,576.86c0-.39-.02-.72-.05-1s-.09-.5-.17-.67-.18-.3-.3-.38c-.12-.08-.27-.12-.44-.12s-.32.04-.44.12c-.12.08-.22.21-.3.38s-.13.39-.17.67c-.03.28-.05.61-.05.99,0,1.48.32,2.22.95,2.22s.95-.73.95-2.21Z" fill="#919191" opacity=".5" stroke-width="0"/>
    <path d="M365.31,574.69c0,2.03-.2,3.5-.59,4.39-.39.87-1.04,1.3-1.97,1.3s-1.59-.44-1.98-1.31c-.39-.85-.58-2.34-.58-4.48s.19-3.63.58-4.48c.39-.88,1.04-1.32,1.97-1.32.86,0,1.49.39,1.9,1.16.44.81.66,2.39.66,4.72ZM363.76,574.69c0-1.71-.07-2.89-.22-3.54-.15-.65-.41-.97-.8-.97s-.65.32-.81.97c-.15.64-.22,1.8-.22,3.48s.07,2.84.22,3.49c.15.64.42.97.81.97s.64-.32.79-.96c.15-.61.23-1.75.23-3.42Z" fill="#919191" opacity=".5" stroke-width="0"/>
    <path d="M369.64,571.61c0,1.77-.55,2.65-1.64,2.65-.55,0-.96-.22-1.21-.65-.26-.43-.38-1.11-.38-2.03s.13-1.6.38-2.03.66-.64,1.22-.64.97.22,1.24.66c.27.44.4,1.12.4,2.05ZM372.55,568.94h.93l-5.61,11.31h-.93l5.61-11.31ZM368.65,571.61c0-.64-.05-1.1-.15-1.38s-.26-.42-.48-.42-.38.13-.47.39c-.09.26-.13.73-.13,1.38s.04,1.12.13,1.38c.09.26.25.39.47.39s.38-.14.48-.41.15-.73.15-1.35ZM374.01,577.8c0,1.74-.53,2.62-1.6,2.62-.55,0-.95-.21-1.21-.64s-.39-1.1-.39-2.01c0-1.78.53-2.67,1.59-2.67s1.61.9,1.61,2.7ZM373.03,577.79c0-.63-.05-1.09-.14-1.37-.09-.28-.25-.42-.47-.42s-.37.13-.46.39c-.08.29-.12.75-.12,1.38,0,.66.04,1.12.13,1.38.09.26.24.39.45.39.41,0,.62-.58.62-1.75Z" fill="#919191" opacity=".5" stroke-width="0"/>
    <path d="M384.19,574.88c0,2-.22,3.42-.67,4.26s-1.19,1.26-2.23,1.26c-1.1,0-1.87-.45-2.32-1.36-.44-.88-.67-2.45-.67-4.71,0-2.01.22-3.44.66-4.27.44-.84,1.2-1.26,2.26-1.26.95,0,1.65.33,2.11.97.3.44.52,1.05.66,1.85.14.74.21,1.83.21,3.25ZM382.6,575.04c0-1.96-.09-3.26-.26-3.9-.18-.64-.53-.97-1.08-.97s-.9.3-1.08.89c-.18.6-.26,1.79-.26,3.59,0,1.65.09,2.8.28,3.44.19.61.55.91,1.07.91s.86-.28,1.05-.85c.19-.56.29-1.6.29-3.11Z" fill="#919191" opacity=".5" stroke-width="0"/>
    <path d="M385.7,568.94h4.07v1.29h-2.55v3.57h2.3v1.29h-2.3v5.16h-1.52v-11.31Z" fill="#919191" opacity=".5" stroke-width="0"/>
    <path d="M394.05,568.94h4.05v1.29h-2.53v3.58h2.24v1.29h-2.24v3.86h2.53v1.29h-4.05v-11.31Z" fill="#919191" opacity=".5" stroke-width="0"/>
    <path d="M401.11,568.94h1.19l2.42,11.31h-1.51l-.42-2.2h-2.24l-.43,2.2h-1.46l2.46-11.31ZM402.57,576.87l-.34-1.8c-.22-1.23-.41-2.53-.55-3.93-.07.68-.16,1.37-.26,2.06-.11.7-.23,1.43-.38,2.22l-.28,1.45h1.81Z" fill="#919191" opacity=".5" stroke-width="0"/>
    <path d="M405.62,568.94h2.01c.83,0,1.45.2,1.85.59.51.51.77,1.3.77,2.35,0,.81-.14,1.46-.41,1.95-.27.49-.66.79-1.16.91l2.08,5.5h-1.55l-2.07-5.54v5.54h-1.52v-11.31ZM407.14,573.95c.59,0,1.01-.14,1.25-.41s.37-.74.37-1.38c0-.35-.03-.65-.08-.9-.05-.25-.13-.45-.24-.61-.11-.16-.25-.27-.42-.34-.17-.07-.38-.11-.62-.11h-.26v3.76Z" fill="#919191" opacity=".5" stroke-width="0"/>
    <path d="M411.94,568.94h1.42l1.52,4.51c.44,1.27.83,2.63,1.16,4.08-.12-.87-.21-1.66-.27-2.37-.06-.71-.09-1.37-.09-2v-4.22h1.53v11.31h-1.43l-1.71-5.09c-.16-.47-.3-.96-.44-1.46-.14-.5-.27-1.02-.38-1.57,0-.07-.03-.15-.05-.25-.02-.1-.05-.21-.08-.34.01.13.03.24.04.33s.02.17.02.23l.08,1.15.08,1.4c0,.08,0,.17.01.29,0,.11,0,.24,0,.38l.08,4.93h-1.5v-11.31Z" fill="#919191" opacity=".5" stroke-width="0"/>
    <path d="M418.96,568.94h4.05v1.29h-2.53v3.58h2.24v1.29h-2.24v3.86h2.53v1.29h-4.05v-11.31Z" fill="#919191" opacity=".5" stroke-width="0"/>
    <path d="M424.4,568.94h2.01c.83,0,1.45.2,1.85.59.51.51.77,1.3.77,2.35,0,.81-.13,1.46-.41,1.95-.27.49-.66.79-1.16.91l2.08,5.5h-1.54l-2.07-5.54v5.54h-1.52v-11.31ZM425.93,573.95c.59,0,1.01-.14,1.25-.41s.37-.74.37-1.38c0-.35-.03-.65-.08-.9-.05-.25-.13-.45-.24-.61-.11-.16-.25-.27-.42-.34-.17-.07-.38-.11-.62-.11h-.26v3.76Z" fill="#919191" opacity=".5" stroke-width="0"/>
    <path d="M434.5,569.18v1.49c-.46-.33-.88-.5-1.25-.5-.4,0-.73.14-.98.42-.25.27-.38.63-.38,1.08,0,.4.09.74.27,1.02.09.15.25.35.46.59.21.24.49.53.82.86.62.63,1.04,1.17,1.27,1.63.22.44.34.99.34,1.63,0,.87-.25,1.59-.74,2.16-.49.55-1.13.83-1.9.83-.65,0-1.2-.18-1.66-.54v-1.51c.54.4,1.04.59,1.48.59.42,0,.74-.14.97-.41s.35-.65.35-1.12c0-.41-.09-.78-.27-1.11-.09-.16-.22-.33-.39-.54s-.37-.43-.62-.68c-.39-.38-.71-.72-.96-1.01s-.44-.55-.56-.77c-.23-.43-.35-.97-.35-1.63,0-.88.23-1.58.69-2.1.46-.52,1.09-.78,1.87-.78.54,0,1.06.13,1.55.39Z" fill="#919191" opacity=".5" stroke-width="0"/>
  </g>
  <g>
    <path d="M332.08,596.58h4.96v1.33h-1.71v9.98h-1.49v-9.98h-1.76v-1.33Z" fill="#cb026e" opacity=".5" stroke-width="0"/>
    <path d="M343.64,602.51c0,2-.22,3.42-.67,4.25s-1.19,1.26-2.23,1.26c-1.1,0-1.87-.45-2.32-1.35-.44-.88-.67-2.45-.67-4.71,0-2.01.22-3.43.66-4.27.44-.84,1.2-1.26,2.26-1.26.95,0,1.65.32,2.11.97.3.43.52,1.05.66,1.85.14.74.21,1.83.21,3.25ZM342.05,602.68c0-1.96-.09-3.26-.26-3.9-.18-.64-.53-.97-1.08-.97s-.9.29-1.08.89c-.18.6-.26,1.79-.26,3.59,0,1.66.09,2.8.28,3.44.19.61.55.91,1.07.91s.86-.28,1.05-.85c.19-.56.29-1.6.29-3.11Z" fill="#cb026e" opacity=".5" stroke-width="0"/>
    <path d="M345.15,596.58h2.01c.97,0,1.67.24,2.11.73.44.49.66,1.27.66,2.34,0,1.5-.44,2.48-1.33,2.92-.44.2-1.09.3-1.93.3v5.02h-1.52v-11.31ZM346.68,601.57c.63,0,1.06-.13,1.3-.38.24-.26.37-.72.37-1.38s-.12-1.17-.35-1.48-.6-.47-1.11-.47h-.21v3.71Z" fill="#cb026e" opacity=".5" stroke-width="0"/>
    <path d="M355.16,596.58h3.6v1.31h-2.44l-.37,2.84h.18c.44,0,.84.07,1.18.21.34.14.63.35.87.62s.41.61.53,1.01.18.86.18,1.37c0,1.27-.28,2.27-.83,3-.55.72-1.32,1.08-2.3,1.08-.55,0-1.15-.16-1.79-.47l.38-1.35c.52.27.96.41,1.31.41.5,0,.89-.22,1.19-.67.29-.45.44-1.06.44-1.83,0-1.45-.62-2.18-1.87-2.18-.31,0-.62.05-.93.14l.66-5.49Z" fill="#cb026e" opacity=".5" stroke-width="0"/>
    <path d="M365.21,602.32c0,2.03-.2,3.5-.59,4.39-.39.87-1.04,1.3-1.97,1.3s-1.59-.44-1.98-1.31c-.39-.85-.58-2.34-.58-4.47s.19-3.62.58-4.47c.39-.88,1.04-1.32,1.97-1.32.86,0,1.49.38,1.9,1.16.44.82.66,2.39.66,4.72ZM363.65,602.32c0-1.71-.07-2.89-.22-3.54-.15-.65-.41-.97-.8-.97s-.65.32-.81.97c-.15.64-.22,1.8-.22,3.48s.07,2.84.22,3.49c.15.64.42.97.81.97s.64-.32.79-.96c.15-.61.23-1.75.23-3.42Z" fill="#cb026e" opacity=".5" stroke-width="0"/>
    <path d="M369.54,599.25c0,1.77-.55,2.65-1.64,2.65-.55,0-.96-.22-1.21-.65-.26-.43-.38-1.11-.38-2.03s.13-1.6.38-2.03.66-.64,1.22-.64.97.22,1.24.66c.27.44.4,1.12.4,2.05ZM372.44,596.58h.93l-5.61,11.31h-.93l5.61-11.31ZM368.54,599.25c0-.64-.05-1.1-.15-1.38s-.26-.42-.48-.42-.38.13-.47.4c-.09.26-.13.72-.13,1.38s.04,1.12.13,1.38c.09.26.25.4.47.4s.38-.14.48-.41.15-.73.15-1.35ZM373.91,605.44c0,1.74-.53,2.61-1.6,2.61-.55,0-.95-.21-1.21-.64s-.39-1.1-.39-2.01c0-1.78.53-2.67,1.59-2.67s1.61.9,1.61,2.7ZM372.93,605.43c0-.63-.05-1.09-.14-1.37-.09-.28-.25-.42-.47-.42s-.37.13-.46.4c-.08.29-.12.75-.12,1.38s.04,1.12.13,1.38c.09.26.24.39.45.39.41,0,.62-.58.62-1.75Z" fill="#cb026e" opacity=".5" stroke-width="0"/>
    <path d="M384.09,602.51c0,2-.22,3.42-.67,4.25s-1.19,1.26-2.23,1.26c-1.1,0-1.87-.45-2.32-1.35-.44-.88-.67-2.45-.67-4.71,0-2.01.22-3.43.66-4.27.44-.84,1.2-1.26,2.26-1.26.95,0,1.65.32,2.11.97.3.43.52,1.05.66,1.85.14.74.21,1.83.21,3.25ZM382.49,602.68c0-1.96-.09-3.26-.26-3.9-.18-.64-.53-.97-1.08-.97s-.9.29-1.08.89c-.18.6-.26,1.79-.26,3.59,0,1.66.09,2.8.28,3.44.19.61.55.91,1.07.91s.86-.28,1.05-.85c.19-.56.29-1.6.29-3.11Z" fill="#cb026e" opacity=".5" stroke-width="0"/>
    <path d="M385.6,596.58h4.07v1.29h-2.55v3.57h2.3v1.29h-2.3v5.16h-1.52v-11.31Z" fill="#cb026e" opacity=".5" stroke-width="0"/>
    <path d="M393.95,596.58h4.05v1.29h-2.53v3.58h2.24v1.29h-2.24v3.86h2.53v1.29h-4.05v-11.31Z" fill="#cb026e" opacity=".5" stroke-width="0"/>
    <path d="M401.01,596.58h1.19l2.42,11.31h-1.51l-.42-2.21h-2.24l-.43,2.21h-1.46l2.46-11.31ZM402.47,604.51l-.34-1.8c-.22-1.23-.41-2.53-.55-3.93-.07.68-.16,1.37-.26,2.06-.11.7-.23,1.43-.38,2.22l-.28,1.45h1.81Z" fill="#cb026e" opacity=".5" stroke-width="0"/>
    <path d="M405.51,596.58h2.01c.83,0,1.45.2,1.85.59.51.51.77,1.3.77,2.35,0,.81-.14,1.46-.41,1.95-.27.49-.66.79-1.16.91l2.08,5.5h-1.55l-2.07-5.54v5.54h-1.52v-11.31ZM407.04,601.59c.59,0,1.01-.14,1.25-.41s.37-.73.37-1.38c0-.35-.03-.65-.08-.9-.05-.25-.13-.45-.24-.61-.11-.16-.25-.27-.42-.34-.17-.07-.38-.11-.62-.11h-.26v3.76Z" fill="#cb026e" opacity=".5" stroke-width="0"/>
    <path d="M411.83,596.58h1.42l1.52,4.51c.44,1.27.83,2.63,1.16,4.08-.12-.88-.21-1.67-.27-2.37-.06-.71-.09-1.38-.09-2v-4.22h1.53v11.31h-1.43l-1.71-5.09c-.16-.47-.3-.96-.44-1.46-.14-.5-.27-1.02-.38-1.57,0-.07-.03-.15-.05-.25-.02-.1-.05-.21-.08-.34.01.13.03.24.04.33s.02.17.02.23l.08,1.15.08,1.4c0,.08,0,.17.01.29,0,.11,0,.24,0,.38l.08,4.93h-1.5v-11.31Z" fill="#cb026e" opacity=".5" stroke-width="0"/>
    <path d="M418.85,596.58h4.05v1.29h-2.53v3.58h2.24v1.29h-2.24v3.86h2.53v1.29h-4.05v-11.31Z" fill="#cb026e" opacity=".5" stroke-width="0"/>
    <path d="M424.3,596.58h2.01c.83,0,1.45.2,1.85.59.51.51.77,1.3.77,2.35,0,.81-.13,1.46-.41,1.95-.27.49-.66.79-1.16.91l2.08,5.5h-1.54l-2.07-5.54v5.54h-1.52v-11.31ZM425.82,601.59c.59,0,1.01-.14,1.25-.41s.37-.73.37-1.38c0-.35-.03-.65-.08-.9-.05-.25-.13-.45-.24-.61-.11-.16-.25-.27-.42-.34-.17-.07-.38-.11-.62-.11h-.26v3.76Z" fill="#cb026e" opacity=".5" stroke-width="0"/>
    <path d="M434.39,596.82v1.49c-.46-.33-.88-.5-1.25-.5-.4,0-.73.14-.98.43-.25.27-.38.63-.38,1.08,0,.4.09.73.27,1.02.09.15.25.35.46.59.21.24.49.53.82.87.62.63,1.04,1.17,1.27,1.63.22.44.34.99.34,1.63,0,.88-.25,1.59-.74,2.16-.49.55-1.13.83-1.9.83-.65,0-1.2-.18-1.66-.53v-1.51c.54.4,1.04.59,1.48.59.42,0,.74-.14.97-.41s.35-.65.35-1.12c0-.41-.09-.78-.27-1.11-.09-.16-.22-.34-.39-.54s-.37-.43-.62-.68c-.39-.38-.71-.72-.96-1.01s-.44-.55-.56-.77c-.23-.43-.35-.97-.35-1.62,0-.88.23-1.58.69-2.1.46-.52,1.09-.78,1.87-.78.54,0,1.06.13,1.55.39Z" fill="#cb026e" opacity=".5" stroke-width="0"/>
  </g>
  <g>
    <path d="M332.5,623.6h2.07c1.62,0,2.42,1,2.42,3.01,0,.77-.11,1.33-.32,1.71s-.58.65-1.11.84c.61.24,1.03.56,1.25.94.23.38.34.94.34,1.7,0,2.07-.89,3.11-2.67,3.11h-1.99v-11.31ZM333.93,628.58c.59,0,1-.14,1.23-.41.23-.29.34-.79.34-1.52,0-1.22-.44-1.83-1.32-1.83h-.18s-.06,0-.07,0v3.75ZM333.93,633.6c.62,0,1.06-.13,1.3-.4.24-.27.36-.75.36-1.46s-.12-1.23-.37-1.52c-.24-.29-.67-.44-1.28-.44v3.82Z" fill="#e1b52f" opacity=".5" stroke-width="0"/>
    <path d="M344.29,629.53c0,2-.22,3.42-.67,4.26s-1.19,1.26-2.23,1.26c-1.1,0-1.87-.45-2.32-1.36-.44-.88-.67-2.45-.67-4.71,0-2.01.22-3.44.66-4.27.44-.84,1.2-1.26,2.26-1.26.95,0,1.65.33,2.11.97.3.44.52,1.05.66,1.85.14.74.21,1.83.21,3.25ZM342.69,629.69c0-1.96-.09-3.26-.26-3.9-.18-.64-.53-.97-1.08-.97s-.9.3-1.08.89c-.18.6-.26,1.79-.26,3.59,0,1.65.09,2.8.28,3.44.19.61.55.91,1.07.91s.86-.28,1.05-.85c.19-.56.29-1.6.29-3.11Z" fill="#e1b52f" opacity=".5" stroke-width="0"/>
    <path d="M345,623.6h4.96v1.33h-1.71v9.98h-1.49v-9.98h-1.76v-1.33Z" fill="#e1b52f" opacity=".5" stroke-width="0"/>
    <path d="M349.9,623.6h4.96v1.33h-1.71v9.98h-1.49v-9.98h-1.76v-1.33Z" fill="#e1b52f" opacity=".5" stroke-width="0"/>
    <path d="M361.46,629.53c0,2-.22,3.42-.67,4.26s-1.19,1.26-2.23,1.26c-1.1,0-1.87-.45-2.32-1.36-.44-.88-.67-2.45-.67-4.71,0-2.01.22-3.44.66-4.27.44-.84,1.2-1.26,2.26-1.26.95,0,1.65.33,2.11.97.3.44.52,1.05.66,1.85.14.74.21,1.83.21,3.25ZM359.87,629.69c0-1.96-.09-3.26-.26-3.9-.18-.64-.54-.97-1.08-.97s-.9.3-1.08.89c-.18.6-.26,1.79-.26,3.59,0,1.65.09,2.8.28,3.44.19.61.55.91,1.07.91s.86-.28,1.05-.85c.19-.56.29-1.6.29-3.11Z" fill="#e1b52f" opacity=".5" stroke-width="0"/>
    <path d="M363.51,623.6h1.3l1,4.61c.12.58.23,1.15.33,1.73.1.58.19,1.19.28,1.82,0-.08.02-.15.02-.19s0-.08.01-.1l.21-1.3.19-1.23.17-.81.89-4.53h1.32l1.04,11.31h-1.46l-.26-3.84c0-.2-.02-.36-.03-.5,0-.14-.01-.26-.01-.35l-.07-1.52-.04-1.39s0-.03,0-.06c0-.03,0-.07-.01-.13l-.04.23c-.04.27-.08.5-.11.7-.03.2-.06.37-.08.5l-.19,1.03-.07.39-.95,4.94h-1.03l-.89-4.26c-.12-.56-.23-1.13-.33-1.71-.1-.58-.18-1.19-.26-1.82l-.44,7.79h-1.44l.93-11.31Z" fill="#e1b52f" opacity=".5" stroke-width="0"/>
    <path d="M377.3,623.6h1.41v7.05h.73v1.16h-.73v3.1h-1.41v-3.1h-3.1v-1.3l3.1-6.91ZM377.3,630.64v-4.75l-1.9,4.75h1.9Z" fill="#e1b52f" opacity=".5" stroke-width="0"/>
    <path d="M385.63,629.34c0,2.03-.2,3.5-.59,4.39-.39.87-1.04,1.3-1.97,1.3s-1.59-.44-1.98-1.31c-.39-.85-.58-2.34-.58-4.48s.19-3.63.58-4.48c.39-.88,1.04-1.32,1.97-1.32.86,0,1.49.39,1.9,1.16.44.81.66,2.39.66,4.72ZM384.08,629.34c0-1.71-.07-2.89-.22-3.54-.15-.65-.41-.97-.8-.97s-.65.32-.81.97c-.15.64-.22,1.8-.22,3.48s.07,2.84.22,3.49c.15.64.42.97.81.97s.64-.32.79-.96c.15-.61.23-1.75.23-3.42Z" fill="#e1b52f" opacity=".5" stroke-width="0"/>
    <path d="M389.96,626.26c0,1.77-.55,2.65-1.64,2.65-.55,0-.96-.22-1.21-.65-.26-.43-.38-1.11-.38-2.03s.13-1.6.38-2.03.66-.64,1.22-.64.98.22,1.24.66c.27.44.4,1.12.4,2.05ZM392.87,623.6h.93l-5.61,11.31h-.93l5.61-11.31ZM388.97,626.26c0-.64-.05-1.1-.15-1.38s-.26-.42-.48-.42-.38.13-.47.39c-.09.26-.13.73-.13,1.38s.04,1.12.13,1.38c.09.26.25.39.47.39s.38-.14.48-.41.15-.73.15-1.35ZM394.34,632.45c0,1.74-.54,2.62-1.6,2.62-.55,0-.95-.21-1.21-.64s-.39-1.1-.39-2.01c0-1.78.53-2.67,1.59-2.67s1.61.9,1.61,2.7ZM393.35,632.44c0-.63-.05-1.09-.14-1.37-.09-.28-.25-.42-.47-.42s-.37.13-.46.39c-.08.29-.12.75-.12,1.38,0,.66.04,1.12.13,1.38.09.26.24.39.45.39.41,0,.62-.58.62-1.75Z" fill="#e1b52f" opacity=".5" stroke-width="0"/>
    <path d="M404.52,629.53c0,2-.22,3.42-.67,4.26s-1.19,1.26-2.23,1.26c-1.1,0-1.87-.45-2.32-1.36-.44-.88-.67-2.45-.67-4.71,0-2.01.22-3.44.66-4.27.44-.84,1.2-1.26,2.26-1.26.95,0,1.65.33,2.11.97.3.44.52,1.05.66,1.85.14.74.21,1.83.21,3.25ZM402.92,629.69c0-1.96-.09-3.26-.26-3.9-.18-.64-.54-.97-1.08-.97s-.9.3-1.08.89c-.18.6-.26,1.79-.26,3.59,0,1.65.09,2.8.28,3.44.19.61.55.91,1.07.91s.86-.28,1.05-.85c.19-.56.29-1.6.29-3.11Z" fill="#e1b52f" opacity=".5" stroke-width="0"/>
    <path d="M406.02,623.6h4.07v1.29h-2.55v3.57h2.3v1.29h-2.3v5.16h-1.52v-11.31Z" fill="#e1b52f" opacity=".5" stroke-width="0"/>
    <path d="M414.37,623.6h4.05v1.29h-2.53v3.58h2.24v1.29h-2.24v3.86h2.53v1.29h-4.05v-11.31Z" fill="#e1b52f" opacity=".5" stroke-width="0"/>
    <path d="M421.43,623.6h1.19l2.42,11.31h-1.51l-.42-2.2h-2.24l-.43,2.2h-1.46l2.46-11.31ZM422.89,631.52l-.34-1.8c-.22-1.23-.41-2.53-.55-3.93-.07.68-.16,1.37-.26,2.06-.11.7-.23,1.43-.38,2.22l-.28,1.45h1.81Z" fill="#e1b52f" opacity=".5" stroke-width="0"/>
    <path d="M425.94,623.6h2.01c.83,0,1.45.2,1.85.59.51.51.77,1.3.77,2.35,0,.81-.13,1.46-.41,1.95-.27.49-.66.79-1.16.91l2.08,5.5h-1.54l-2.07-5.54v5.54h-1.52v-11.31ZM427.46,628.61c.59,0,1.01-.14,1.25-.41s.37-.74.37-1.38c0-.35-.03-.65-.08-.9-.05-.25-.13-.45-.24-.61-.11-.16-.25-.27-.42-.34-.17-.07-.38-.11-.62-.11h-.26v3.76Z" fill="#e1b52f" opacity=".5" stroke-width="0"/>
    <path d="M432.26,623.6h1.42l1.52,4.51c.44,1.27.83,2.63,1.17,4.08-.12-.87-.21-1.66-.27-2.37-.06-.71-.09-1.37-.09-2v-4.22h1.53v11.31h-1.43l-1.71-5.09c-.16-.47-.3-.96-.44-1.46-.14-.5-.27-1.02-.38-1.57,0-.07-.03-.15-.05-.25-.02-.1-.05-.21-.08-.34.01.13.03.24.04.33s.02.17.02.23l.08,1.15.08,1.4c0,.08,0,.17.01.29,0,.11,0,.24,0,.38l.08,4.93h-1.5v-11.31Z" fill="#e1b52f" opacity=".5" stroke-width="0"/>
    <path d="M439.28,623.6h4.05v1.29h-2.53v3.58h2.24v1.29h-2.24v3.86h2.53v1.29h-4.05v-11.31Z" fill="#e1b52f" opacity=".5" stroke-width="0"/>
    <path d="M444.73,623.6h2.01c.83,0,1.45.2,1.85.59.51.51.77,1.3.77,2.35,0,.81-.14,1.46-.41,1.95-.27.49-.66.79-1.16.91l2.08,5.5h-1.55l-2.07-5.54v5.54h-1.52v-11.31ZM446.25,628.61c.59,0,1.01-.14,1.25-.41s.37-.74.37-1.38c0-.35-.03-.65-.08-.9-.05-.25-.13-.45-.24-.61-.11-.16-.25-.27-.42-.34-.17-.07-.38-.11-.62-.11h-.26v3.76Z" fill="#e1b52f" opacity=".5" stroke-width="0"/>
    <path d="M454.82,623.83v1.49c-.46-.33-.88-.5-1.25-.5-.4,0-.73.14-.98.42-.25.27-.38.63-.38,1.08,0,.4.09.74.27,1.02.09.15.25.35.46.59.21.24.49.53.82.86.62.63,1.04,1.17,1.27,1.63.22.44.34.99.34,1.63,0,.87-.25,1.59-.74,2.16-.49.55-1.12.83-1.9.83-.65,0-1.2-.18-1.66-.54v-1.51c.54.4,1.04.59,1.48.59.42,0,.74-.14.97-.41s.35-.65.35-1.12c0-.41-.09-.78-.27-1.11-.09-.16-.22-.33-.39-.54s-.37-.43-.62-.68c-.39-.38-.71-.72-.96-1.01s-.44-.55-.56-.77c-.23-.43-.35-.97-.35-1.63,0-.88.23-1.58.69-2.1.46-.52,1.09-.78,1.87-.78.54,0,1.06.13,1.55.39Z" fill="#e1b52f" opacity=".5" stroke-width="0"/>
  </g>
  <g>
    <path d="M332.5,650.6h2.07c1.62,0,2.42,1,2.42,3.01,0,.77-.1,1.33-.31,1.71s-.58.65-1.11.84c.61.24,1.03.56,1.25.94.23.38.34.94.34,1.7,0,2.07-.89,3.11-2.67,3.11h-1.99v-11.31ZM333.93,655.58c.59,0,1-.14,1.23-.41.23-.29.34-.79.34-1.52,0-1.22-.44-1.83-1.32-1.83h-.18s-.06,0-.07,0v3.75ZM333.93,660.6c.62,0,1.06-.13,1.3-.4.24-.27.36-.75.36-1.46s-.12-1.23-.37-1.52c-.24-.29-.67-.44-1.28-.44v3.82Z" fill="#003d2b" opacity=".5" stroke-width="0"/>
    <path d="M344.29,656.53c0,2-.22,3.42-.67,4.26s-1.19,1.26-2.23,1.26c-1.1,0-1.87-.45-2.32-1.36-.44-.88-.67-2.45-.67-4.71,0-2.01.22-3.44.66-4.27.44-.84,1.2-1.26,2.26-1.26.95,0,1.65.33,2.11.97.3.44.52,1.05.66,1.85.14.74.21,1.83.21,3.25ZM342.69,656.69c0-1.96-.09-3.26-.26-3.9-.18-.64-.54-.97-1.08-.97s-.9.3-1.08.89c-.18.6-.26,1.79-.26,3.59,0,1.65.09,2.8.28,3.44.19.61.55.91,1.07.91s.86-.28,1.05-.85c.19-.56.29-1.6.29-3.11Z" fill="#003d2b" opacity=".5" stroke-width="0"/>
    <path d="M345,650.6h4.96v1.33h-1.71v9.98h-1.49v-9.98h-1.76v-1.33Z" fill="#003d2b" opacity=".5" stroke-width="0"/>
    <path d="M349.9,650.6h4.96v1.33h-1.71v9.98h-1.49v-9.98h-1.76v-1.33Z" fill="#003d2b" opacity=".5" stroke-width="0"/>
    <path d="M361.46,656.53c0,2-.22,3.42-.67,4.26s-1.19,1.26-2.23,1.26c-1.1,0-1.87-.45-2.32-1.36-.44-.88-.67-2.45-.67-4.71,0-2.01.22-3.44.66-4.27.44-.84,1.2-1.26,2.26-1.26.95,0,1.65.33,2.11.97.3.44.52,1.05.66,1.85.14.74.21,1.83.21,3.25ZM359.87,656.69c0-1.96-.09-3.26-.26-3.9-.18-.64-.53-.97-1.08-.97s-.9.3-1.08.89c-.18.6-.26,1.79-.26,3.59,0,1.65.09,2.8.28,3.44.19.61.55.91,1.07.91s.86-.28,1.05-.85c.19-.56.29-1.6.29-3.11Z" fill="#003d2b" opacity=".5" stroke-width="0"/>
    <path d="M363.51,650.6h1.3l1,4.61c.12.58.23,1.15.33,1.73.1.58.19,1.19.27,1.82,0-.08.02-.15.02-.19s0-.08.01-.1l.21-1.3.19-1.23.17-.81.89-4.53h1.32l1.04,11.31h-1.46l-.26-3.84c0-.2-.02-.36-.03-.5,0-.14-.01-.26-.01-.35l-.07-1.52-.04-1.39s0-.03,0-.06c0-.03,0-.07-.01-.13l-.04.23c-.04.27-.07.5-.11.7-.03.2-.06.37-.08.5l-.19,1.03-.07.39-.95,4.94h-1.03l-.89-4.26c-.12-.56-.23-1.13-.33-1.71-.1-.58-.18-1.19-.26-1.82l-.44,7.79h-1.44l.93-11.31Z" fill="#003d2b" opacity=".5" stroke-width="0"/>
    <path d="M376.03,653.63h-1.45v-.3c0-.5.04-.93.13-1.3.08-.36.22-.66.4-.89.18-.23.42-.41.7-.52.28-.11.62-.17,1.02-.17.83,0,1.44.23,1.82.7s.57,1.21.57,2.23c0,.84-.09,1.45-.26,1.82-.17.38-.5.66-.99.86.53.18.89.46,1.09.84.2.38.3.98.3,1.81,0,1.14-.21,1.98-.64,2.51s-1.1.81-2.01.81c-1.55,0-2.33-.89-2.33-2.67v-.2c0-.05,0-.09,0-.1h1.43c0,.08,0,.16-.01.22,0,.06,0,.11,0,.15,0,.39.08.69.25.92.17.23.4.34.69.34.19,0,.35-.04.49-.11.13-.08.24-.2.33-.37.08-.17.15-.39.19-.66s.06-.59.06-.97c0-.69-.1-1.18-.31-1.49-.21-.3-.55-.45-1.04-.45-.05,0-.11,0-.18.01-.06,0-.14.02-.22.03v-1.32h.21c.59,0,.99-.13,1.2-.38s.32-.74.32-1.44c0-1.17-.3-1.76-.89-1.76s-.88.5-.88,1.5v.34Z" fill="#003d2b" opacity=".5" stroke-width="0"/>
    <path d="M385.63,656.34c0,2.03-.2,3.5-.59,4.39-.39.87-1.04,1.3-1.97,1.3s-1.59-.44-1.98-1.31c-.39-.85-.58-2.34-.58-4.48s.19-3.63.58-4.48c.39-.88,1.04-1.32,1.97-1.32.86,0,1.49.39,1.9,1.16.44.81.66,2.39.66,4.72ZM384.08,656.34c0-1.71-.07-2.89-.22-3.54-.15-.65-.41-.97-.8-.97s-.65.32-.81.97c-.15.64-.22,1.8-.22,3.48s.07,2.84.22,3.49c.15.64.42.97.81.97s.64-.32.79-.96c.15-.61.23-1.75.23-3.42Z" fill="#003d2b" opacity=".5" stroke-width="0"/>
    <path d="M389.96,653.26c0,1.77-.55,2.65-1.64,2.65-.55,0-.96-.22-1.21-.65-.26-.43-.38-1.11-.38-2.03s.13-1.6.38-2.03.66-.64,1.22-.64.97.22,1.24.66c.27.44.4,1.12.4,2.05ZM392.87,650.6h.93l-5.61,11.31h-.93l5.61-11.31ZM388.97,653.26c0-.64-.05-1.1-.15-1.38s-.26-.42-.48-.42-.38.13-.47.39c-.09.26-.13.73-.13,1.38s.04,1.12.13,1.38c.09.26.25.39.47.39s.38-.14.48-.41.15-.73.15-1.35ZM394.34,659.45c0,1.74-.53,2.62-1.6,2.62-.55,0-.95-.21-1.21-.64s-.39-1.1-.39-2.01c0-1.78.53-2.67,1.59-2.67s1.61.9,1.61,2.7ZM393.35,659.44c0-.63-.05-1.09-.14-1.37-.09-.28-.25-.42-.47-.42s-.37.13-.46.39c-.08.29-.12.75-.12,1.38,0,.66.04,1.12.13,1.38.09.26.24.39.45.39.41,0,.62-.58.62-1.75Z" fill="#003d2b" opacity=".5" stroke-width="0"/>
    <path d="M404.52,656.53c0,2-.22,3.42-.67,4.26s-1.19,1.26-2.23,1.26c-1.1,0-1.87-.45-2.32-1.36-.44-.88-.67-2.45-.67-4.71,0-2.01.22-3.44.66-4.27.44-.84,1.2-1.26,2.26-1.26.95,0,1.65.33,2.11.97.3.44.52,1.05.66,1.85.14.74.21,1.83.21,3.25ZM402.92,656.69c0-1.96-.09-3.26-.26-3.9-.18-.64-.53-.97-1.08-.97s-.9.3-1.08.89c-.18.6-.26,1.79-.26,3.59,0,1.65.09,2.8.28,3.44.19.61.55.91,1.07.91s.86-.28,1.05-.85c.19-.56.29-1.6.29-3.11Z" fill="#003d2b" opacity=".5" stroke-width="0"/>
    <path d="M406.02,650.6h4.07v1.29h-2.55v3.57h2.3v1.29h-2.3v5.16h-1.52v-11.31Z" fill="#003d2b" opacity=".5" stroke-width="0"/>
    <path d="M414.37,650.6h4.05v1.29h-2.53v3.58h2.24v1.29h-2.24v3.86h2.53v1.29h-4.05v-11.31Z" fill="#003d2b" opacity=".5" stroke-width="0"/>
    <path d="M421.43,650.6h1.19l2.42,11.31h-1.51l-.42-2.2h-2.24l-.43,2.2h-1.46l2.46-11.31ZM422.89,658.52l-.34-1.8c-.22-1.23-.41-2.53-.55-3.93-.07.68-.16,1.37-.26,2.06-.11.7-.23,1.43-.38,2.22l-.28,1.45h1.81Z" fill="#003d2b" opacity=".5" stroke-width="0"/>
    <path d="M425.94,650.6h2.01c.83,0,1.45.2,1.85.59.51.51.77,1.3.77,2.35,0,.81-.14,1.46-.41,1.95-.27.49-.66.79-1.16.91l2.08,5.5h-1.55l-2.07-5.54v5.54h-1.52v-11.31ZM427.46,655.61c.59,0,1.01-.14,1.25-.41s.37-.74.37-1.38c0-.35-.03-.65-.08-.9-.05-.25-.13-.45-.24-.61-.11-.16-.25-.27-.42-.34-.17-.07-.38-.11-.62-.11h-.26v3.76Z" fill="#003d2b" opacity=".5" stroke-width="0"/>
    <path d="M432.26,650.6h1.42l1.52,4.51c.44,1.27.83,2.63,1.16,4.08-.12-.87-.21-1.66-.27-2.37-.06-.71-.09-1.37-.09-2v-4.22h1.53v11.31h-1.43l-1.71-5.09c-.16-.47-.3-.96-.44-1.46-.14-.5-.27-1.02-.38-1.57,0-.07-.03-.15-.05-.25-.02-.1-.05-.21-.08-.34.01.13.03.24.04.33s.02.17.02.23l.08,1.15.08,1.4c0,.08,0,.17.01.29,0,.11,0,.24,0,.38l.08,4.93h-1.5v-11.31Z" fill="#003d2b" opacity=".5" stroke-width="0"/>
    <path d="M439.28,650.6h4.05v1.29h-2.53v3.58h2.24v1.29h-2.24v3.86h2.53v1.29h-4.05v-11.31Z" fill="#003d2b" opacity=".5" stroke-width="0"/>
    <path d="M444.73,650.6h2.01c.83,0,1.45.2,1.85.59.51.51.77,1.3.77,2.35,0,.81-.13,1.46-.41,1.95-.27.49-.66.79-1.16.91l2.08,5.5h-1.54l-2.07-5.54v5.54h-1.52v-11.31ZM446.25,655.61c.59,0,1.01-.14,1.25-.41s.37-.74.37-1.38c0-.35-.03-.65-.08-.9-.05-.25-.13-.45-.24-.61-.11-.16-.25-.27-.42-.34-.17-.07-.38-.11-.62-.11h-.26v3.76Z" fill="#003d2b" opacity=".5" stroke-width="0"/>
    <path d="M454.82,650.83v1.49c-.46-.33-.88-.5-1.25-.5-.4,0-.73.14-.98.42-.25.27-.38.63-.38,1.08,0,.4.09.74.27,1.02.09.15.25.35.46.59.21.24.49.53.82.86.62.63,1.04,1.17,1.27,1.63.22.44.34.99.34,1.63,0,.87-.25,1.59-.74,2.16-.49.55-1.13.83-1.9.83-.65,0-1.2-.18-1.66-.54v-1.51c.54.4,1.04.59,1.48.59.42,0,.74-.14.97-.41s.35-.65.35-1.12c0-.41-.09-.78-.27-1.11-.09-.16-.22-.33-.39-.54s-.37-.43-.62-.68c-.39-.38-.71-.72-.96-1.01s-.44-.55-.56-.77c-.23-.43-.35-.97-.35-1.63,0-.88.23-1.58.69-2.1.46-.52,1.09-.78,1.87-.78.54,0,1.06.13,1.55.39Z" fill="#003d2b" opacity=".5" stroke-width="0"/>
  </g>
  <g>
    <path d="M331.97,677.4h2.07c1.62,0,2.42,1,2.42,3.01,0,.77-.11,1.33-.32,1.71s-.58.65-1.11.84c.61.24,1.03.56,1.25.94.23.38.34.94.34,1.7,0,2.08-.89,3.11-2.67,3.11h-1.99v-11.31ZM333.4,682.38c.59,0,1-.14,1.23-.41.23-.29.34-.79.34-1.52,0-1.22-.44-1.83-1.32-1.83h-.18s-.06,0-.07,0v3.75ZM333.4,687.4c.62,0,1.06-.13,1.3-.4s.36-.75.36-1.46-.12-1.23-.37-1.52c-.24-.29-.67-.44-1.28-.44v3.82Z" fill="#0e8bcd" opacity=".5" stroke-width="0"/>
    <path d="M343.76,683.33c0,2-.22,3.42-.67,4.26s-1.19,1.26-2.23,1.26c-1.1,0-1.87-.45-2.32-1.36-.44-.88-.67-2.45-.67-4.71,0-2.01.22-3.44.66-4.27.44-.84,1.2-1.26,2.26-1.26.95,0,1.65.33,2.11.97.3.43.52,1.05.66,1.85.14.74.21,1.83.21,3.25ZM342.16,683.49c0-1.96-.09-3.26-.26-3.9-.18-.64-.53-.97-1.08-.97s-.9.3-1.08.89c-.18.6-.26,1.79-.26,3.59,0,1.66.09,2.8.28,3.44.19.61.55.91,1.07.91s.86-.28,1.05-.85c.19-.56.29-1.6.29-3.11Z" fill="#0e8bcd" opacity=".5" stroke-width="0"/>
    <path d="M344.47,677.4h4.96v1.33h-1.71v9.98h-1.49v-9.98h-1.76v-1.33Z" fill="#0e8bcd" opacity=".5" stroke-width="0"/>
    <path d="M349.37,677.4h4.96v1.33h-1.71v9.98h-1.49v-9.98h-1.76v-1.33Z" fill="#0e8bcd" opacity=".5" stroke-width="0"/>
    <path d="M360.93,683.33c0,2-.22,3.42-.67,4.26s-1.19,1.26-2.23,1.26c-1.1,0-1.87-.45-2.32-1.36-.44-.88-.67-2.45-.67-4.71,0-2.01.22-3.44.66-4.27.44-.84,1.2-1.26,2.26-1.26.95,0,1.65.33,2.11.97.3.43.52,1.05.66,1.85.14.74.21,1.83.21,3.25ZM359.34,683.49c0-1.96-.09-3.26-.26-3.9-.18-.64-.54-.97-1.08-.97s-.9.3-1.08.89c-.18.6-.26,1.79-.26,3.59,0,1.66.09,2.8.28,3.44.19.61.55.91,1.07.91s.86-.28,1.05-.85c.19-.56.29-1.6.29-3.11Z" fill="#0e8bcd" opacity=".5" stroke-width="0"/>
    <path d="M362.98,677.4h1.3l1,4.61c.12.58.23,1.15.33,1.73.1.58.19,1.19.28,1.82,0-.08.02-.15.02-.19,0-.05,0-.08.01-.1l.21-1.3.19-1.23.17-.81.89-4.53h1.32l1.04,11.31h-1.46l-.26-3.84c0-.2-.02-.36-.03-.5,0-.14-.01-.26-.01-.35l-.07-1.52-.04-1.39s0-.03,0-.06c0-.03,0-.07-.01-.13l-.04.23c-.04.27-.08.5-.11.7-.03.2-.06.37-.08.5l-.19,1.03-.07.39-.95,4.94h-1.03l-.89-4.26c-.12-.56-.23-1.13-.33-1.71-.1-.58-.18-1.19-.26-1.82l-.44,7.79h-1.44l.93-11.31Z" fill="#0e8bcd" opacity=".5" stroke-width="0"/>
    <path d="M375.44,681.07h-1.49v-.45c-.01-1.24.17-2.1.54-2.61.38-.51,1.01-.76,1.89-.76,1.67,0,2.5.92,2.5,2.77,0,1.25-.62,3.04-1.87,5.38l-.9,1.69-.04.09s-.06.12-.1.21h2.8v1.3h-4.97c.08-.19.26-.55.52-1.11s.62-1.3,1.08-2.23c.39-.82.71-1.52.97-2.09s.45-1.04.59-1.41c.26-.73.4-1.37.4-1.9,0-.94-.33-1.41-.97-1.41s-.94.58-.94,1.74v.64s.01.12.01.12Z" fill="#0e8bcd" opacity=".5" stroke-width="0"/>
    <path d="M385.1,683.14c0,2.03-.2,3.5-.59,4.39-.39.87-1.04,1.3-1.97,1.3s-1.59-.44-1.98-1.31c-.39-.85-.58-2.34-.58-4.48s.19-3.62.58-4.47c.39-.88,1.04-1.32,1.97-1.32.86,0,1.49.39,1.9,1.16.44.82.66,2.39.66,4.72ZM383.55,683.14c0-1.71-.07-2.89-.22-3.54-.15-.65-.41-.97-.8-.97s-.65.32-.81.97c-.15.64-.22,1.8-.22,3.48s.07,2.84.22,3.49c.15.64.42.97.81.97s.64-.32.79-.96c.15-.61.23-1.75.23-3.42Z" fill="#0e8bcd" opacity=".5" stroke-width="0"/>
    <path d="M389.43,680.06c0,1.77-.55,2.65-1.64,2.65-.55,0-.96-.22-1.21-.65-.26-.43-.38-1.11-.38-2.03s.13-1.6.38-2.03.66-.64,1.22-.64.98.22,1.24.66c.27.44.4,1.12.4,2.05ZM392.34,677.4h.93l-5.61,11.31h-.93l5.61-11.31ZM388.44,680.06c0-.64-.05-1.1-.15-1.38s-.26-.42-.48-.42-.38.13-.47.4c-.09.26-.13.72-.13,1.38s.04,1.12.13,1.38c.09.26.25.4.47.4s.38-.14.48-.41c.1-.28.15-.73.15-1.35ZM393.81,686.25c0,1.74-.54,2.61-1.6,2.61-.55,0-.95-.21-1.21-.64-.26-.43-.39-1.1-.39-2.01,0-1.78.53-2.67,1.59-2.67s1.61.9,1.61,2.7ZM392.82,686.24c0-.63-.05-1.09-.14-1.37-.09-.28-.25-.42-.47-.42s-.37.13-.46.4c-.08.29-.12.75-.12,1.38s.04,1.12.13,1.38c.09.26.24.39.45.39.41,0,.62-.58.62-1.75Z" fill="#0e8bcd" opacity=".5" stroke-width="0"/>
    <path d="M403.99,683.33c0,2-.22,3.42-.67,4.26s-1.19,1.26-2.23,1.26c-1.1,0-1.87-.45-2.32-1.36-.44-.88-.67-2.45-.67-4.71,0-2.01.22-3.44.66-4.27.44-.84,1.2-1.26,2.26-1.26.95,0,1.65.33,2.11.97.3.43.52,1.05.66,1.85.14.74.21,1.83.21,3.25ZM402.39,683.49c0-1.96-.09-3.26-.26-3.9-.18-.64-.54-.97-1.08-.97s-.9.3-1.08.89c-.18.6-.26,1.79-.26,3.59,0,1.66.09,2.8.28,3.44.19.61.55.91,1.07.91s.86-.28,1.05-.85c.19-.56.29-1.6.29-3.11Z" fill="#0e8bcd" opacity=".5" stroke-width="0"/>
    <path d="M405.5,677.4h4.07v1.29h-2.55v3.57h2.3v1.29h-2.3v5.16h-1.52v-11.31Z" fill="#0e8bcd" opacity=".5" stroke-width="0"/>
    <path d="M413.84,677.4h4.05v1.29h-2.53v3.58h2.24v1.29h-2.24v3.86h2.53v1.29h-4.05v-11.31Z" fill="#0e8bcd" opacity=".5" stroke-width="0"/>
    <path d="M420.91,677.4h1.19l2.42,11.31h-1.51l-.42-2.2h-2.24l-.43,2.2h-1.46l2.46-11.31ZM422.36,685.32l-.34-1.8c-.22-1.23-.41-2.53-.55-3.93-.07.68-.16,1.37-.26,2.06-.11.7-.23,1.43-.38,2.22l-.28,1.45h1.81Z" fill="#0e8bcd" opacity=".5" stroke-width="0"/>
    <path d="M425.41,677.4h2.01c.83,0,1.45.2,1.85.59.51.51.77,1.3.77,2.35,0,.81-.13,1.46-.41,1.95-.27.49-.66.79-1.16.91l2.08,5.5h-1.54l-2.07-5.54v5.54h-1.52v-11.31ZM426.93,682.41c.59,0,1.01-.14,1.25-.41s.37-.73.37-1.38c0-.35-.03-.65-.08-.9-.05-.25-.13-.45-.24-.61-.11-.16-.25-.27-.42-.34-.17-.07-.38-.11-.62-.11h-.26v3.76Z" fill="#0e8bcd" opacity=".5" stroke-width="0"/>
    <path d="M431.73,677.4h1.42l1.52,4.51c.44,1.27.83,2.63,1.17,4.08-.12-.87-.21-1.67-.27-2.37s-.09-1.38-.09-2v-4.22h1.53v11.31h-1.43l-1.71-5.09c-.16-.47-.3-.96-.44-1.46-.14-.5-.27-1.02-.38-1.57,0-.07-.03-.15-.05-.25-.02-.1-.05-.21-.08-.34.01.13.03.24.04.33,0,.09.02.17.02.23l.08,1.15.08,1.4c0,.08,0,.17.01.29,0,.11,0,.24,0,.38l.08,4.93h-1.5v-11.31Z" fill="#0e8bcd" opacity=".5" stroke-width="0"/>
    <path d="M438.75,677.4h4.05v1.29h-2.53v3.58h2.24v1.29h-2.24v3.86h2.53v1.29h-4.05v-11.31Z" fill="#0e8bcd" opacity=".5" stroke-width="0"/>
    <path d="M444.2,677.4h2.01c.83,0,1.45.2,1.85.59.51.51.77,1.3.77,2.35,0,.81-.14,1.46-.41,1.95-.27.49-.66.79-1.16.91l2.08,5.5h-1.55l-2.07-5.54v5.54h-1.52v-11.31ZM445.72,682.41c.59,0,1.01-.14,1.25-.41s.37-.73.37-1.38c0-.35-.03-.65-.08-.9-.05-.25-.13-.45-.24-.61-.11-.16-.25-.27-.42-.34-.17-.07-.38-.11-.62-.11h-.26v3.76Z" fill="#0e8bcd" opacity=".5" stroke-width="0"/>
    <path d="M454.29,677.63v1.49c-.46-.33-.88-.5-1.25-.5-.4,0-.73.14-.98.42-.25.27-.38.63-.38,1.08,0,.4.09.74.27,1.02.09.15.25.35.46.59.21.24.49.53.82.86.62.63,1.04,1.17,1.27,1.63.22.44.34.99.34,1.63,0,.87-.25,1.59-.74,2.16-.49.55-1.12.83-1.9.83-.65,0-1.2-.18-1.66-.54v-1.51c.54.4,1.04.59,1.48.59.42,0,.74-.14.97-.41.23-.28.35-.65.35-1.12,0-.41-.09-.78-.27-1.11-.09-.16-.22-.33-.39-.54-.17-.2-.37-.43-.62-.68-.39-.38-.71-.72-.96-1.01s-.44-.55-.56-.77c-.23-.43-.35-.97-.35-1.63,0-.88.23-1.58.69-2.1.46-.52,1.09-.78,1.87-.78.54,0,1.06.13,1.55.39Z" fill="#0e8bcd" opacity=".5" stroke-width="0"/>
  </g>
  <path d="M331.11,493.15c-88.27,0-131.46-112.15-30.94-112.15" fill="none" opacity=".5" stroke="#d86c01" stroke-miterlimit="10" stroke-width=".5"/>
  <path d="M331.11,518.34c-106.26,0-158.47-173.91-31.18-173.91" fill="none" opacity=".5" stroke="#01608a" stroke-miterlimit="10" stroke-width=".5"/>
  <path d="M331.11,547.84c-124.24,0-188.42-239.98-31.18-239.98" fill="none" opacity=".5" stroke="#5b8f77" stroke-miterlimit="10" stroke-width=".5"/>
  <path d="M331.11,574.53c-142.88,0-218.64-303.24-31.18-303.24" fill="none" opacity=".5" stroke="#919191" stroke-miterlimit="10" stroke-width=".5"/>
  <path d="M332.11,600.75c-161,0-249.39-366.03-32.41-366.03" fill="none" opacity=".5" stroke="#cb026e" stroke-miterlimit="10" stroke-width=".5"/>
  <path d="M331.89,628.13c-179.4,0-280.06-429.99-32.43-429.99" fill="none" opacity=".5" stroke="#e1b52f" stroke-miterlimit="10" stroke-width=".5"/>
  <path d="M332.66,656.13c-216.04,0-294.01-494.56-34.1-494.56" fill="none" opacity=".5" stroke="#003d2b" stroke-miterlimit="10" stroke-width=".5"/>
  <path d="M331.89,684.13c-215.27,0-338.04-559.13-31.23-559.13" fill="none" opacity=".5" stroke="#0e8bcd" stroke-miterlimit="10" stroke-width=".5"/>
  <path d="M331.11,466.17c-70.03,0-103.7-48.6-25.95-48.6" fill="none" opacity=".5" stroke="#8b3076" stroke-miterlimit="10" stroke-width=".5"/>
</svg>