<svg id="tax-available" xmlns="http://www.w3.org/2000/svg" viewBox="0 0 800 834.76">
                    <circle cx="382.16" cy="400.6" r="9.9" fill="rgba(14,139,205,.5)" stroke-width="0" />
                    <circle cx="411.73" cy="403.56" r="9.9" fill="rgba(14,139,205,.5)" stroke-width="0" />
                    <circle cx="423.34" cy="408.94" r="9.9" fill="rgba(14,139,205,.5)" stroke-width="0" />
                    <circle cx="431.33" cy="415.8" r="9.9" fill="rgba(14,139,205,.5)" stroke-width="0" />
                    <circle cx="436.89" cy="423.74" r="9.9" fill="rgba(14,139,205,.5)" stroke-width="0" />
                    <circle cx="440.47" cy="432.45" r="9.9" fill="rgba(14,139,205,.5)" stroke-width="0" />
                    <circle cx="442.23" cy="441.69" r="9.9" fill="rgba(14,139,205,.5)" stroke-width="0" />
                    <circle cx="442.29" cy="451.24" r="9.9" fill="rgba(14,139,205,.5)" stroke-width="0" />
                    <circle cx="440.71" cy="460.88" r="9.9" fill="rgba(14,139,205,.5)" stroke-width="0" />
                    <circle cx="437.57" cy="470.42" r="9.9" fill="rgba(14,139,205,.5)" stroke-width="0" />
                    <circle cx="432.93" cy="479.66" r="9.9" fill="rgba(14,139,205,.5)" stroke-width="0" />
                    <circle cx="426.86" cy="488.41" r="9.9" fill="rgba(14,139,205,.5)" stroke-width="0" />
                    <circle cx="419.46" cy="496.52" r="9.9" fill="rgba(14,139,205,.5)" stroke-width="0" />
                    <circle cx="410.82" cy="503.82" r="9.9" fill="rgba(14,139,205,.5)" stroke-width="0" />
                    <circle cx="401.06" cy="510.15" r="9.9" fill="rgba(14,139,205,.5)" stroke-width="0" />
                    <circle cx="390.3" cy="515.38" r="9.9" fill="rgba(14,139,205,.5)" stroke-width="0" />
                    <circle cx="378.69" cy="519.39" r="9.9" fill="rgba(14,139,205,.5)" stroke-width="0" />
                    <circle cx="366.38" cy="522.08" r="9.9" fill="rgba(14,139,205,.5)" stroke-width="0" />
                    <circle cx="353.52" cy="523.35" r="9.9" fill="rgba(14,139,205,.5)" stroke-width="0" />
                    <circle cx="340.3" cy="523.15" r="9.9" fill="rgba(14,139,205,.5)" stroke-width="0" />
                    <circle cx="326.87" cy="521.41" r="9.9" fill="rgba(14,139,205,.5)" stroke-width="0" />
                    <circle cx="313.43" cy="518.12" r="9.9" fill="rgba(14,139,205,.5)" stroke-width="0" />
                    <circle cx="300.15" cy="513.26" r="9.9" fill="rgba(14,139,205,.5)" stroke-width="0" />
                    <circle cx="287.23" cy="506.85" r="9.9" fill="rgba(14,139,205,.5)" stroke-width="0" />
                    <circle cx="274.84" cy="498.91" r="9.9" fill="rgba(14,139,205,.5)" stroke-width="0" />
                    <circle cx="263.15" cy="489.5" r="9.9" fill="rgba(14,139,205,.5)" stroke-width="0" />
                    <circle cx="252.35" cy="478.69" r="9.9" fill="rgba(14,139,205,.5)" stroke-width="0" />
                    <circle cx="242.59" cy="466.58" r="9.9" fill="rgba(14,139,205,.5)" stroke-width="0" />
                    <circle cx="234.03" cy="453.26" r="9.9" fill="rgba(14,139,205,.5)" stroke-width="0" />
                    <circle cx="226.81" cy="438.88" r="9.9" fill="rgba(14,139,205,.5)" stroke-width="0" />
                    <circle cx="221.06" cy="423.56" r="9.9" fill="rgba(14,139,205,.5)" stroke-width="0" />
                    <circle cx="216.89" cy="407.47" r="9.9" fill="rgba(14,139,205,.5)" stroke-width="0" />
                    <circle cx="214.38" cy="390.79" r="9.9" fill="rgba(14,139,205,.5)" stroke-width="0" />
                    <circle cx="213.63" cy="373.67" r="9.9" fill="rgba(14,139,205,.5)" stroke-width="0" />
                    <circle cx="214.67" cy="356.33" r="9.9" fill="rgba(14,139,205,.5)" stroke-width="0" />
                    <circle cx="217.56" cy="338.94" r="9.9" fill="rgba(14,139,205,.5)" stroke-width="0" />
                    <circle cx="222.3" cy="321.71" r="9.9" fill="rgba(14,139,205,.5)" stroke-width="0" />
                    <circle cx="228.89" cy="304.84" r="9.9" fill="rgba(14,139,205,.5)" stroke-width="0" />
                    <circle cx="237.3" cy="288.54" r="9.9" fill="rgba(14,139,205,.5)" stroke-width="0" />
                    <circle cx="247.47" cy="272.99" r="9.9" fill="rgba(14,139,205,.5)" stroke-width="0" />
                    <circle cx="259.34" cy="258.39" r="9.9" fill="rgba(14,139,205,.5)" stroke-width="0" />
                    <circle cx="272.81" cy="244.93" r="9.9" fill="rgba(14,139,205,.5)" stroke-width="0" />
                    <circle cx="287.77" cy="232.78" r="9.9" fill="rgba(14,139,205,.5)" stroke-width="0" />
                    <circle cx="304.08" cy="222.1" r="9.9" fill="rgba(14,139,205,.5)" stroke-width="0" />
                    <circle cx="321.6" cy="213.06" r="9.9" fill="rgba(14,139,205,.5)" stroke-width="0" />
                    <circle cx="340.15" cy="205.77" r="9.9" fill="rgba(14,139,205,.5)" stroke-width="0" />
                    <circle cx="359.56" cy="200.36" r="9.9" fill="rgba(14,139,205,.5)" stroke-width="0" />
                    <circle cx="379.64" cy="196.93" r="9.9" fill="rgba(14,139,205,.5)" stroke-width="0" />
                    <circle cx="400.17" cy="195.55" r="9.9" fill="rgba(14,139,205,.5)" stroke-width="0" />
                    <circle cx="420.95" cy="196.27" r="9.9" fill="rgba(14,139,205,.5)" stroke-width="0" />
                    <circle cx="441.76" cy="199.14" r="9.9" fill="rgba(14,139,205,.5)" stroke-width="0" />
                    <circle cx="462.36" cy="204.16" r="9.9" fill="rgba(14,139,205,.5)" stroke-width="0" />
                    <circle cx="482.54" cy="211.32" r="9.9" fill="rgba(14,139,205,.5)" stroke-width="0" />
                    <circle cx="502.07" cy="220.58" r="9.9" fill="rgba(14,139,205,.5)" stroke-width="0" />
                    <circle cx="520.73" cy="231.88" r="9.9" fill="rgba(14,139,205,.5)" stroke-width="0" />
                    <circle cx="538.31" cy="245.14" r="9.9" fill="rgba(14,139,205,.5)" stroke-width="0" />
                    <circle cx="554.6" cy="260.24" r="9.9" fill="rgba(14,139,205,.5)" stroke-width="0" />
                    <circle cx="569.4" cy="277.07" r="9.9" fill="rgba(14,139,205,.5)" stroke-width="0" />
                    <circle cx="582.53" cy="295.47" r="9.9" fill="rgba(14,139,205,.5)" stroke-width="0" />
                    <circle cx="593.82" cy="315.27" r="9.9" fill="rgba(14,139,205,.5)" stroke-width="0" />
                    <circle cx="603.13" cy="336.29" r="9.9" fill="rgba(14,139,205,.5)" stroke-width="0" />
                    <circle cx="610.33" cy="358.33" r="9.9" fill="rgba(14,139,205,.5)" stroke-width="0" />
                    <circle cx="615.3" cy="381.16" r="9.9" fill="rgba(14,139,205,.5)" stroke-width="0" />
                    <circle cx="617.95" cy="404.56" r="9.9" fill="rgba(14,139,205,.5)" stroke-width="0" />
                    <circle cx="618.23" cy="428.3" r="9.9" fill="rgba(14,139,205,.5)" stroke-width="0" />
                    <circle cx="616.09" cy="452.13" r="9.9" fill="rgba(14,139,205,.5)" stroke-width="0" />
                    <circle cx="611.52" cy="475.79" r="9.9" fill="rgba(14,139,205,.5)" stroke-width="0" />
                    <circle cx="604.53" cy="499.05" r="9.9" fill="rgba(14,139,205,.5)" stroke-width="0" />
                    <circle cx="595.17" cy="521.65" r="9.9" fill="rgba(14,139,205,.5)" stroke-width="0" />
                    <circle cx="583.48" cy="543.35" r="9.9" fill="rgba(14,139,205,.5)" stroke-width="0" />
                    <circle cx="569.57" cy="563.91" r="9.9" fill="rgba(14,139,205,.5)" stroke-width="0" />
                    <circle cx="553.54" cy="583.09" r="9.9" fill="rgba(14,139,205,.5)" stroke-width="0" />
                    <circle cx="535.53" cy="600.68" r="9.9" fill="rgba(14,139,205,.5)" stroke-width="0" />
                    <circle cx="515.71" cy="616.48" r="9.9" fill="rgba(14,139,205,.5)" stroke-width="0" />
                    <circle cx="494.25" cy="630.29" r="9.9" fill="rgba(14,139,205,.5)" stroke-width="0" />
                    <circle cx="471.35" cy="641.94" r="9.9" transform="translate(-237.8 1004.38) rotate(-80.78)"
                        fill="rgba(14,139,205,.5)" stroke-width="0" />
                    <circle cx="447.24" cy="651.3" r="9.9" fill="rgba(14,139,205,.5)" stroke-width="0" />
                    <circle cx="422.15" cy="658.22" r="9.9" fill="rgba(14,139,205,.5)" stroke-width="0" />
                    <circle cx="396.32" cy="662.61" r="9.9" fill="rgba(14,139,205,.5)" stroke-width="0" />
                    <circle cx="370.02" cy="664.39" r="9.9" fill="rgba(14,139,205,.5)" stroke-width="0" />
                    <circle cx="343.5" cy="663.51" r="9.9" fill="rgba(14,139,205,.5)" stroke-width="0" />
                    <circle cx="317.04" cy="659.94" r="9.9" fill="rgba(14,139,205,.5)" stroke-width="0" />
                    <circle cx="290.92" cy="653.69" r="9.9" fill="rgba(14,139,205,.5)" stroke-width="0" />
                    <circle cx="265.4" cy="644.79" r="9.9" fill="rgba(14,139,205,.5)" stroke-width="0" />
                    <circle cx="240.76" cy="633.31" r="9.9" fill="rgba(14,139,205,.5)" stroke-width="0" />
                    <circle cx="217.26" cy="619.32" r="9.9" fill="rgba(14,139,205,.5)" stroke-width="0" />
                    <circle cx="195.16" cy="602.94" r="9.9" fill="rgba(14,139,205,.5)" stroke-width="0" />
                    <circle cx="174.7" cy="584.32" r="9.9" fill="rgba(14,139,205,.5)" stroke-width="0" />
                    <circle cx="156.1" cy="563.62" r="9.9" fill="rgba(14,139,205,.5)" stroke-width="0" />
                    <circle cx="139.59" cy="541.03" r="9.9" fill="rgba(14,139,205,.5)" stroke-width="0" />
                    <circle cx="125.35" cy="516.76" r="9.9" fill="rgba(14,139,205,.5)" stroke-width="0" />
                    <circle cx="113.56" cy="491.04" r="9.9" fill="rgba(14,139,205,.5)" stroke-width="0" />
                    <circle cx="104.36" cy="464.11" r="9.9" fill="rgba(14,139,205,.5)" stroke-width="0" />
                    <circle cx="97.87" cy="436.25" r="9.9" fill="rgba(14,139,205,.5)" stroke-width="0" />
                    <circle cx="94.2" cy="407.73" r="9.9" fill="rgba(14,139,205,.5)" stroke-width="0" />
                    <circle cx="93.4" cy="378.83" r="9.9" fill="rgba(14,139,205,.5)" stroke-width="0" />
                    <circle cx="95.52" cy="349.85" r="9.9" fill="rgba(14,139,205,.5)" stroke-width="0" />
                    <circle cx="100.56" cy="321.08" r="9.9" fill="rgba(14,139,205,.5)" stroke-width="0" />
                    <circle cx="108.51" cy="292.81" r="9.9" fill="rgba(14,139,205,.5)" stroke-width="0" />
                    <circle cx="119.3" cy="265.34" r="9.9" fill="rgba(14,139,205,.5)" stroke-width="0" />
                    <circle cx="132.87" cy="238.96" r="9.9" fill="rgba(14,139,205,.5)" stroke-width="0" />
                    <circle cx="149.1" cy="213.96" r="9.9" fill="rgba(14,139,205,.5)" stroke-width="0" />
                    <circle cx="167.84" cy="190.59" r="9.9" fill="rgba(14,139,205,.5)" stroke-width="0" />
                    <circle cx="188.94" cy="169.12" r="9.9" fill="rgba(14,139,205,.5)" stroke-width="0" />
                    <circle cx="212.19" cy="149.77" r="9.9" fill="rgba(14,139,205,.5)" stroke-width="0" />
                    <circle cx="237.39" cy="132.78" r="9.9" fill="rgba(14,139,205,.5)" stroke-width="0" />
                    <circle cx="264.29" cy="118.33" r="9.9" fill="rgba(14,139,205,.5)" stroke-width="0" />
                    <circle cx="292.64" cy="106.6" r="9.9" fill="rgba(14,139,205,.5)" stroke-width="0" />
                    <circle cx="322.16" cy="97.72" r="9.9" fill="rgba(14,139,205,.5)" stroke-width="0" />
                    <circle cx="352.56" cy="91.82" r="9.9" fill="rgba(14,139,205,.5)" stroke-width="0" />
                    <circle cx="383.54" cy="88.99" r="9.9" fill="rgba(14,139,205,.5)" stroke-width="0" />
                    <circle cx="414.79" cy="89.28" r="9.9" fill="rgba(14,139,205,.5)" stroke-width="0" />
                    <circle cx="445.99" cy="92.72" r="9.9" fill="rgba(14,139,205,.5)" stroke-width="0" />
                    <circle cx="476.83" cy="99.29" r="9.9" fill="rgba(14,139,205,.5)" stroke-width="0" />
                    <circle cx="506.99" cy="108.97" r="9.9" fill="rgba(14,139,205,.5)" stroke-width="0" />
                    <circle cx="536.15" cy="121.67" r="9.9" fill="rgba(14,139,205,.5)" stroke-width="0" />
                    <circle cx="564.01" cy="137.3" r="9.9" fill="rgba(14,139,205,.5)" stroke-width="0" />
                    <circle cx="590.28" cy="155.72" r="9.9" fill="rgba(14,139,205,.5)" stroke-width="0" />
                    <circle cx="614.68" cy="176.77" r="9.9" fill="rgba(14,139,205,.5)" stroke-width="0" />
                    <circle cx="636.93" cy="200.26" r="9.9" fill="rgba(14,139,205,.5)" stroke-width="0" />
                    <circle cx="656.81" cy="225.96" r="9.9" fill="rgba(14,139,205,.5)" stroke-width="0" />
                    <circle cx="674.08" cy="253.64" r="9.9" fill="rgba(14,139,205,.5)" stroke-width="0" />
                    <circle cx="688.55" cy="283.04" r="9.9" fill="rgba(14,139,205,.5)" stroke-width="0" />
                    <circle cx="700.05" cy="313.86" r="9.9" fill="rgba(14,139,205,.5)" stroke-width="0" />
                    <circle cx="708.44" cy="345.81" r="9.9" fill="rgba(14,139,205,.5)" stroke-width="0" />
                    <circle cx="713.61" cy="378.57" r="9.9" fill="rgba(14,139,205,.5)" stroke-width="0" />
                    <circle cx="715.48" cy="411.81" r="9.9" fill="rgba(14,139,205,.5)" stroke-width="0" />
                    <circle cx="714" cy="445.21" r="9.9" fill="rgba(14,139,205,.5)" stroke-width="0" />
                    <circle cx="709.17" cy="478.42" r="9.9" fill="rgba(14,139,205,.5)" stroke-width="0" />
                    <circle cx="701" cy="511.1" r="9.9" fill="rgba(14,139,205,.5)" stroke-width="0" />
                    <circle cx="689.56" cy="542.93" r="9.9" fill="rgba(14,139,205,.5)" stroke-width="0" />
                    <circle cx="674.94" cy="573.57" r="9.9" fill="rgba(14,139,205,.5)" stroke-width="0" />
                    <circle cx="657.25" cy="602.7" r="9.9" fill="rgba(14,139,205,.5)" stroke-width="0" />
                    <circle cx="636.66" cy="630.02" r="9.9" fill="rgba(14,139,205,.5)" stroke-width="0" />
                    <circle cx="613.35" cy="655.23" r="9.9" fill="rgba(14,139,205,.5)" stroke-width="0" />
                    <circle cx="587.53" cy="678.07" r="9.9" fill="rgba(14,139,205,.5)" stroke-width="0" />
                    <circle cx="559.46" cy="698.28" r="9.9" fill="rgba(14,139,205,.5)" stroke-width="0" />
                    <circle cx="529.39" cy="715.64" r="9.9" fill="rgba(14,139,205,.5)" stroke-width="0" />
                    <circle cx="497.62" cy="729.96" r="9.9" fill="rgba(14,139,205,.5)" stroke-width="0" />
                    <circle cx="464.46" cy="741.07" r="9.9" fill="rgba(14,139,205,.5)" stroke-width="0" />
                    <circle cx="430.23" cy="748.83" r="9.9" fill="rgba(14,139,205,.5)" stroke-width="0" />
                    <circle cx="395.27" cy="753.15" r="9.9" fill="rgba(14,139,205,.5)" stroke-width="0" />
                    <circle cx="359.93" cy="753.94" r="9.9" fill="rgba(14,139,205,.5)" stroke-width="0" />
                    <circle cx="324.57" cy="751.18" r="9.9" fill="rgba(14,139,205,.5)" stroke-width="0" />
                    <circle cx="289.53" cy="744.88" r="9.9" fill="rgba(14,139,205,.5)" stroke-width="0" />
                    <circle cx="255.19" cy="735.07" r="9.9" fill="rgba(14,139,205,.5)" stroke-width="0" />
                    <circle cx="221.88" cy="721.82" r="9.9" fill="rgba(14,139,205,.5)" stroke-width="0" />
                    <circle cx="189.96" cy="705.25" r="9.9" fill="rgba(14,139,205,.5)" stroke-width="0" />
                    <circle cx="159.75" cy="685.51" r="9.9" fill="rgba(14,139,205,.5)" stroke-width="0" />
                    <circle cx="131.57" cy="662.76" r="9.9" fill="rgba(14,139,205,.5)" stroke-width="0" />
                    <circle cx="105.73" cy="637.22" r="9.9" fill="rgba(14,139,205,.5)" stroke-width="0" />
                    <circle cx="82.49" cy="609.13" r="9.9" fill="rgba(14,139,205,.5)" stroke-width="0" />
                    <circle cx="62.12" cy="578.76" r="9.9" fill="rgba(14,139,205,.5)" stroke-width="0" />
                    <circle cx="44.82" cy="546.4" r="9.9" fill="rgba(14,139,205,.5)" stroke-width="0" />
                    <circle cx="30.81" cy="512.36" r="9.9" fill="rgba(14,139,205,.5)" stroke-width="0" />
                    <circle cx="20.24" cy="476.97" r="9.9" fill="rgba(14,139,205,.5)" stroke-width="0" />
                    <circle cx="13.24" cy="440.58" r="9.9" fill="rgba(14,139,205,.5)" stroke-width="0" />
                    <circle cx="9.9" cy="403.56" r="9.9" fill="rgba(14,139,205,.5)" stroke-width="0" />
                    <circle cx="10.29" cy="366.27" r="9.9" fill="rgba(14,139,205,.5)" stroke-width="0" />
                    <circle cx="14.41" cy="329.09" r="9.9" fill="rgba(14,139,205,.5)" stroke-width="0" />
                    <circle cx="22.26" cy="292.4" r="9.9" fill="rgba(14,139,205,.5)" stroke-width="0" />
                    <circle cx="33.78" cy="256.56" r="9.9" fill="rgba(14,139,205,.5)" stroke-width="0" />
                    <circle cx="48.87" cy="221.95" r="9.9" fill="rgba(14,139,205,.5)" stroke-width="0" />
                    <circle cx="67.4" cy="188.92" r="9.9" fill="rgba(14,139,205,.5)" stroke-width="0" />
                    <circle cx="89.21" cy="157.81" r="9.9" fill="rgba(14,139,205,.5)" stroke-width="0" />
                    <circle cx="114.1" cy="128.95" r="9.9" fill="rgba(14,139,205,.5)" stroke-width="0" />
                    <circle cx="141.84" cy="102.65" r="9.9" fill="rgba(14,139,205,.5)" stroke-width="0" />
                    <circle cx="172.15" cy="79.18" r="9.9" fill="rgba(14,139,205,.5)" stroke-width="0" />
                    <circle cx="204.76" cy="58.8" r="9.9" fill="rgba(14,139,205,.5)" stroke-width="0" />
                    <circle cx="239.35" cy="41.73" r="9.9" fill="rgba(14,139,205,.5)" stroke-width="0" />
                    <circle cx="275.57" cy="28.17" r="9.9" fill="rgba(14,139,205,.5)" stroke-width="0" />
                    <circle cx="313.08" cy="18.27" r="9.9" fill="rgba(14,139,205,.5)" stroke-width="0" />
                    <circle cx="351.51" cy="12.15" r="9.9" fill="rgba(14,139,205,.5)" stroke-width="0" />
                    <circle cx="390.46" cy="9.9" r="9.9" fill="rgba(14,139,205,.5)" stroke-width="0" />
                    <circle cx="429.56" cy="11.56" r="9.9" fill="rgba(14,139,205,.5)" stroke-width="0" />
                    <circle cx="468.41" cy="17.14" r="9.9" fill="rgba(14,139,205,.5)" stroke-width="0" />
                    <circle cx="506.62" cy="26.6" r="9.9" fill="rgba(14,139,205,.5)" stroke-width="0" />
                    <circle cx="543.79" cy="39.88" r="9.9" fill="rgba(14,139,205,.5)" stroke-width="0" />
                    <circle cx="579.55" cy="56.85" r="9.9" fill="rgba(14,139,205,.5)" stroke-width="0" />
                    <circle cx="613.53" cy="77.37" r="9.9" fill="rgba(14,139,205,.5)" stroke-width="0" />
                    <circle cx="645.37" cy="101.25" r="9.9" fill="rgba(14,139,205,.5)" stroke-width="0" />
                    <circle cx="674.75" cy="128.27" r="9.9" fill="rgba(14,139,205,.5)" stroke-width="0" />
                    <circle cx="701.36" cy="158.17" r="9.9" fill="rgba(14,139,205,.5)" stroke-width="0" />
                    <circle cx="724.9" cy="190.67" r="9.9" fill="rgba(14,139,205,.5)" stroke-width="0" />
                    <circle cx="745.13" cy="225.46" r="9.9" fill="rgba(14,139,205,.5)" stroke-width="0" />
                    <circle cx="761.83" cy="262.2" r="9.9" fill="rgba(14,139,205,.5)" stroke-width="0" />
                    <circle cx="774.81" cy="300.52" r="9.9" fill="rgba(14,139,205,.5)" stroke-width="0" />
                    <circle cx="783.91" cy="340.06" r="9.9" fill="rgba(14,139,205,.5)" stroke-width="0" />
                    <circle cx="789.03" cy="380.42" r="9.9" transform="translate(287.14 1098.33) rotate(-80.78)"
                        fill="rgba(14,139,205,.5)" stroke-width="0" />
                    <circle cx="790.1" cy="421.19" r="9.9" fill="rgba(14,139,205,.5)" stroke-width="0" />
                    <circle cx="787.07" cy="461.98" r="9.9" fill="rgba(14,139,205,.5)" stroke-width="0" />
                    <circle cx="779.96" cy="502.36" r="9.9" fill="rgba(14,139,205,.5)" stroke-width="0" />
                    <circle cx="768.82" cy="541.93" r="9.9" fill="rgba(14,139,205,.5)" stroke-width="0" />
                    <circle cx="753.75" cy="580.29" r="9.9" fill="rgba(14,139,205,.5)" stroke-width="0" />
                    <circle cx="734.86" cy="617.05" r="9.9" fill="rgba(14,139,205,.5)" stroke-width="0" />
                    <circle cx="712.34" cy="651.83" r="9.9" fill="rgba(14,139,205,.5)" stroke-width="0" />
                    <circle cx="686.38" cy="684.26" r="9.9" fill="rgba(14,139,205,.5)" stroke-width="0" />
                    <circle cx="657.24" cy="714.01" r="9.9" fill="rgba(14,139,205,.5)" stroke-width="0" />
                    <circle cx="625.19" cy="740.76" r="9.9" fill="rgba(14,139,205,.5)" stroke-width="0" />
                    <circle cx="590.54" cy="764.24" r="9.9" fill="rgba(14,139,205,.5)" stroke-width="0" />
                    <circle cx="553.63" cy="784.19" r="9.9" fill="rgba(14,139,205,.5)" stroke-width="0" />
                    <circle cx="514.81" cy="800.39" r="9.9" fill="rgba(14,139,205,.5)" stroke-width="0" />
                    <circle cx="474.46" cy="812.65" r="9.9" fill="rgba(14,139,205,.5)" stroke-width="0" />
                    <circle cx="432.99" cy="820.84" r="9.9" fill="rgba(14,139,205,.5)" stroke-width="0" />
                    <circle cx="390.8" cy="824.86" r="9.9" fill="rgba(14,139,205,.5)" stroke-width="0" />
                    <circle cx="348.32" cy="824.64" r="9.9" fill="rgba(14,139,205,.5)" stroke-width="0" />
                    <circle cx="305.97" cy="820.16" r="9.9" fill="rgba(14,139,205,.5)" stroke-width="0" />
                    <circle cx="264.18" cy="811.45" r="9.9" fill="rgba(14,139,205,.5)" stroke-width="0" />
                    <circle cx="223.37" cy="798.58" r="9.9" fill="rgba(14,139,205,.5)" stroke-width="0" />
                    <circle cx="183.95" cy="781.65" r="9.9" fill="rgba(14,139,205,.5)" stroke-width="0" />
                    <circle cx="146.34" cy="760.82" r="9.9" fill="rgba(14,139,205,.5)" stroke-width="0" />
                    <circle cx="110.91" cy="736.27" r="9.9" fill="rgba(14,139,205,.5)" stroke-width="0" />
                </svg>